<svg width="106" height="118" viewBox="0 0 106 118" fill="none" xmlns="http://www.w3.org/2000/svg">
<path d="M22.7 62.675V51.425C22.7 49.9331 23.2926 48.5024 24.3475 47.4475C25.4024 46.3926 26.8332 45.8 28.325 45.8H99.575C101.067 45.8 102.498 46.3926 103.552 47.4475C104.607 48.5024 105.2 49.9331 105.2 51.425V62.675H22.7ZM105.2 66.425V111.425C105.2 112.917 104.607 114.348 103.552 115.402C102.498 116.457 101.067 117.05 99.575 117.05H28.325C26.8332 117.05 25.4024 116.457 24.3475 115.402C23.2926 114.348 22.7 112.917 22.7 111.425V66.425H105.2ZM48.95 103.925C48.95 103.428 48.7525 102.951 48.4008 102.599C48.0492 102.248 47.5723 102.05 47.075 102.05H35.825C35.3277 102.05 34.8508 102.248 34.4992 102.599C34.1476 102.951 33.95 103.428 33.95 103.925C33.95 104.422 34.1476 104.899 34.4992 105.251C34.8508 105.602 35.3277 105.8 35.825 105.8H47.075C47.5723 105.8 48.0492 105.602 48.4008 105.251C48.7525 104.899 48.95 104.422 48.95 103.925ZM48.95 90.8C48.95 90.3027 48.7525 89.8258 48.4008 89.4742C48.0492 89.1225 47.5723 88.925 47.075 88.925H35.825C35.3277 88.925 34.8508 89.1225 34.4992 89.4742C34.1476 89.8258 33.95 90.3027 33.95 90.8C33.95 91.2973 34.1476 91.7742 34.4992 92.1258C34.8508 92.4774 35.3277 92.675 35.825 92.675H47.075C47.5723 92.675 48.0492 92.4774 48.4008 92.1258C48.7525 91.7742 48.95 91.2973 48.95 90.8ZM48.95 79.55C48.95 79.0527 48.7525 78.5758 48.4008 78.2242C48.0492 77.8725 47.5723 77.675 47.075 77.675H35.825C35.3277 77.675 34.8508 77.8725 34.4992 78.2242C34.1476 78.5758 33.95 79.0527 33.95 79.55C33.95 80.0473 34.1476 80.5242 34.4992 80.8758C34.8508 81.2274 35.3277 81.425 35.825 81.425H47.075C47.5723 81.425 48.0492 81.2274 48.4008 80.8758C48.7525 80.5242 48.95 80.0473 48.95 79.55ZM71.45 103.942C71.45 103.445 71.2525 102.968 70.9008 102.616C70.5492 102.264 70.0723 102.067 69.575 102.067H58.0119C57.5146 102.067 57.0377 102.264 56.6861 102.616C56.3344 102.968 56.1369 103.445 56.1369 103.942C56.1369 104.439 56.3344 104.916 56.6861 105.268C57.0377 105.619 57.5146 105.817 58.0119 105.817H69.575C70.0723 105.817 70.5492 105.619 70.9008 105.268C71.2525 104.916 71.45 104.439 71.45 103.942ZM71.45 90.8169C71.45 90.3196 71.2525 89.8427 70.9008 89.491C70.5492 89.1394 70.0723 88.9419 69.575 88.9419H58.0119C57.5146 88.9419 57.0377 89.1394 56.6861 89.491C56.3344 89.8427 56.1369 90.3196 56.1369 90.8169C56.1369 91.3141 56.3344 91.7911 56.6861 92.1427C57.0377 92.4943 57.5146 92.6919 58.0119 92.6919H69.575C70.0723 92.6919 70.5492 92.4943 70.9008 92.1427C71.2525 91.7911 71.45 91.3141 71.45 90.8169ZM71.45 79.5669C71.45 79.0696 71.2525 78.5927 70.9008 78.241C70.5492 77.8894 70.0723 77.6919 69.575 77.6919H58.0119C57.5146 77.6919 57.0377 77.8894 56.6861 78.241C56.3344 78.5927 56.1369 79.0696 56.1369 79.5669C56.1369 80.0641 56.3344 80.5411 56.6861 80.8927C57.0377 81.2443 57.5146 81.4419 58.0119 81.4419H69.575C70.0723 81.4419 70.5492 81.2443 70.9008 80.8927C71.2525 80.5411 71.45 80.0641 71.45 79.5669ZM93.95 103.925C93.95 103.428 93.7525 102.951 93.4008 102.599C93.0492 102.248 92.5723 102.05 92.075 102.05H80.825C80.3277 102.05 79.8508 102.248 79.4992 102.599C79.1476 102.951 78.95 103.428 78.95 103.925C78.95 104.422 79.1476 104.899 79.4992 105.251C79.8508 105.602 80.3277 105.8 80.825 105.8H92.075C92.5723 105.8 93.0492 105.602 93.4008 105.251C93.7525 104.899 93.95 104.422 93.95 103.925ZM93.95 90.8C93.95 90.3027 93.7525 89.8258 93.4008 89.4742C93.0492 89.1225 92.5723 88.925 92.075 88.925H80.825C80.3277 88.925 79.8508 89.1225 79.4992 89.4742C79.1476 89.8258 78.95 90.3027 78.95 90.8C78.95 91.2973 79.1476 91.7742 79.4992 92.1258C79.8508 92.4774 80.3277 92.675 80.825 92.675H92.075C92.5723 92.675 93.0492 92.4774 93.4008 92.1258C93.7525 91.7742 93.95 91.2973 93.95 90.8ZM93.95 79.55C93.95 79.0527 93.7525 78.5758 93.4008 78.2242C93.0492 77.8725 92.5723 77.675 92.075 77.675H80.825C80.3277 77.675 79.8508 77.8725 79.4992 78.2242C79.1476 78.5758 78.95 79.0527 78.95 79.55C78.95 80.0473 79.1476 80.5242 79.4992 80.8758C79.8508 81.2274 80.3277 81.425 80.825 81.425H92.075C92.5723 81.425 93.0492 81.2274 93.4008 80.8758C93.7525 80.5242 93.95 80.0473 93.95 79.55Z" fill="#F6C975"/>
<path d="M24.4738 68.2999H13.2238C12.7265 68.2999 12.2496 68.4975 11.898 68.8491C11.5464 69.2007 11.3488 69.6776 11.3488 70.1749V81.4249C11.3488 81.9222 11.5464 82.3991 11.898 82.7508C12.2496 83.1024 12.7265 83.2999 13.2238 83.2999H24.4738C24.9711 83.2999 25.448 83.1024 25.7996 82.7508C26.1513 82.3991 26.3488 81.9222 26.3488 81.4249V70.1749C26.3488 69.6776 26.1513 69.2007 25.7996 68.8491C25.448 68.4975 24.9711 68.2999 24.4738 68.2999ZM22.5988 79.5499H15.0988V72.0499H22.5988V79.5499Z" fill="#304FF2"/>
<path d="M65.825 13.925H48.95V6.42499C48.95 4.93315 48.3574 3.5024 47.3025 2.44751C46.2476 1.39262 44.8169 0.799988 43.325 0.799988H28.325C26.8332 0.799988 25.4024 1.39262 24.3475 2.44751C23.2926 3.5024 22.7 4.93315 22.7 6.42499V13.925H5.82501C4.33317 13.925 2.90243 14.5176 1.84754 15.5725C0.792645 16.6274 0.200012 18.0581 0.200012 19.55V90.8C0.200012 92.2918 0.792645 93.7226 1.84754 94.7775C2.90243 95.8324 4.33317 96.425 5.82501 96.425H65.825C67.3169 96.425 68.7476 95.8324 69.8025 94.7775C70.8574 93.7226 71.45 92.2918 71.45 90.8V19.55C71.45 18.0581 70.8574 16.6274 69.8025 15.5725C68.7476 14.5176 67.3169 13.925 65.825 13.925ZM26.45 6.42499C26.45 5.92771 26.6476 5.45079 26.9992 5.09916C27.3508 4.74753 27.8277 4.54999 28.325 4.54999H43.325C43.8223 4.54999 44.2992 4.74753 44.6508 5.09916C45.0025 5.45079 45.2 5.92771 45.2 6.42499V13.925H26.45V6.42499ZM67.7 90.8C67.7 91.2973 67.5025 91.7742 67.1508 92.1258C66.7992 92.4774 66.3223 92.675 65.825 92.675H5.82501C5.32773 92.675 4.85082 92.4774 4.49919 92.1258C4.14756 91.7742 3.95001 91.2973 3.95001 90.8V19.55C3.95001 19.0527 4.14756 18.5758 4.49919 18.2242C4.85082 17.8725 5.32773 17.675 5.82501 17.675H65.825C66.3223 17.675 66.7992 17.8725 67.1508 18.2242C67.5025 18.5758 67.7 19.0527 67.7 19.55V90.8Z" fill="#304FF2"/>
<path d="M24.9858 50.2531L18.7983 57.9931L14.6545 53.8493C14.3009 53.5078 13.8273 53.3188 13.3356 53.323C12.844 53.3273 12.3737 53.5245 12.0261 53.8721C11.6785 54.2198 11.4813 54.6901 11.477 55.1817C11.4727 55.6733 11.6617 56.1469 12.0033 56.5006L17.6283 62.1256C17.8147 62.3121 18.0383 62.4572 18.2846 62.5514C18.5309 62.6456 18.7943 62.6868 19.0576 62.6723C19.3209 62.6577 19.5782 62.5879 19.8127 62.4672C20.0471 62.3465 20.2535 62.1777 20.4183 61.9718L27.9183 52.5968C28.2291 52.2084 28.3729 51.7125 28.318 51.2181C28.2631 50.7237 28.0141 50.2714 27.6258 49.9606C27.2374 49.6498 26.7414 49.506 26.2471 49.5608C25.7527 49.6157 25.3003 49.8647 24.9895 50.2531H24.9858Z" fill="#304FF2"/>
<path d="M24.9858 31.5031L18.7983 39.2431L14.6545 35.0993C14.3009 34.7578 13.8273 34.5688 13.3356 34.573C12.844 34.5773 12.3737 34.7745 12.0261 35.1221C11.6785 35.4698 11.4813 35.9401 11.477 36.4317C11.4727 36.9233 11.6617 37.3969 12.0033 37.7506L17.6283 43.3756C17.8147 43.5621 18.0383 43.7072 18.2846 43.8014C18.5309 43.8956 18.7943 43.9368 19.0576 43.9223C19.3209 43.9077 19.5782 43.8379 19.8127 43.7172C20.0471 43.5965 20.2535 43.4277 20.4183 43.2218L27.9183 33.8468C28.0722 33.6545 28.1867 33.4338 28.2552 33.1972C28.3238 32.9606 28.3452 32.7129 28.318 32.4681C28.2908 32.2233 28.2157 31.9862 28.0969 31.7705C27.9782 31.5547 27.8181 31.3644 27.6258 31.2106C27.4335 31.0567 27.2127 30.9421 26.9762 30.8736C26.7396 30.805 26.4919 30.7837 26.2471 30.8108C26.0023 30.838 25.7652 30.9131 25.5494 31.0319C25.3337 31.1506 25.1434 31.3107 24.9895 31.5031H24.9858Z" fill="#304FF2"/>
<path d="M58.3251 53.2999H35.8251C35.3278 53.2999 34.8509 53.4975 34.4992 53.8491C34.1476 54.2007 33.9501 54.6776 33.9501 55.1749C33.9501 55.6722 34.1476 56.1491 34.4992 56.5008C34.8509 56.8524 35.3278 57.0499 35.8251 57.0499H58.3251C58.8224 57.0499 59.2993 56.8524 59.6509 56.5008C60.0025 56.1491 60.2001 55.6722 60.2001 55.1749C60.2001 54.6776 60.0025 54.2007 59.6509 53.8491C59.2993 53.4975 58.8224 53.2999 58.3251 53.2999Z" fill="#304FF2"/>
<path d="M58.3251 34.5499H35.8251C35.3278 34.5499 34.8509 34.7475 34.4992 35.0991C34.1476 35.4507 33.9501 35.9276 33.9501 36.4249C33.9501 36.9222 34.1476 37.3991 34.4992 37.7508C34.8509 38.1024 35.3278 38.2999 35.8251 38.2999H58.3251C58.8224 38.2999 59.2993 38.1024 59.6509 37.7508C60.0025 37.3991 60.2001 36.9222 60.2001 36.4249C60.2001 35.9276 60.0025 35.4507 59.6509 35.0991C59.2993 34.7475 58.8224 34.5499 58.3251 34.5499Z" fill="#304FF2"/>
</svg>
