<svg width="106" height="118" viewBox="0 0 106 118" fill="none" xmlns="http://www.w3.org/2000/svg">
<path d="M99.4751 57.125H50.7251C49.2333 57.125 47.8025 57.7176 46.7476 58.7725C45.6927 59.8274 45.1001 61.2582 45.1001 62.75V111.5C45.1001 112.992 45.6927 114.423 46.7476 115.477C47.8025 116.532 49.2333 117.125 50.7251 117.125H99.4751C100.967 117.125 102.398 116.532 103.453 115.477C104.507 114.423 105.1 112.992 105.1 111.5V62.75C105.1 61.2582 104.507 59.8274 103.453 58.7725C102.398 57.7176 100.967 57.125 99.4751 57.125ZM89.7251 77L72.8501 99.5C72.6889 99.7149 72.4834 99.8926 72.2476 100.021C72.0117 100.15 71.751 100.226 71.4831 100.245C71.2151 100.264 70.9462 100.225 70.6946 100.131C70.4429 100.037 70.2144 99.8906 70.0245 99.7006L58.7745 88.4506C58.4329 88.097 58.2439 87.6234 58.2482 87.1317C58.2525 86.6401 58.4497 86.1699 58.7973 85.8222C59.1449 85.4746 59.6152 85.2774 60.1068 85.2731C60.5985 85.2688 61.0721 85.4578 61.4257 85.7994L71.1476 95.5213L86.7251 74.75C86.8728 74.553 87.0579 74.3871 87.2698 74.2616C87.4817 74.1362 87.7162 74.0537 87.9599 74.0188C88.2037 73.984 88.4519 73.9976 88.6904 74.0587C88.929 74.1198 89.1531 74.2273 89.3501 74.375C89.5471 74.5227 89.713 74.7078 89.8385 74.9197C89.9639 75.1316 90.0464 75.3661 90.0812 75.6098C90.1161 75.8536 90.1025 76.1018 90.0414 76.3403C89.9803 76.5789 89.8728 76.803 89.7251 77Z" fill="#F3B133" fill-opacity="0.67"/>
<path d="M65.7251 94.625C67.2169 94.625 68.6477 94.0324 69.7026 92.9775C70.7575 91.9226 71.3501 90.4918 71.3501 89V25.25C71.3033 24.9674 71.2407 24.6875 71.1626 24.4119L59.9126 1.91188C59.7485 1.60498 59.5057 1.34722 59.2092 1.16503C58.9127 0.982829 58.573 0.882735 58.2251 0.875H5.7251C4.23325 0.875 2.80251 1.46763 1.74762 2.52252C0.69273 3.57742 0.100098 5.00816 0.100098 6.5V89C0.100098 90.4918 0.69273 91.9226 1.74762 92.9775C2.80251 94.0324 4.23325 94.625 5.7251 94.625H65.7251ZM55.7576 11.8775L58.2251 6.9425L64.6395 19.7731L56.3895 14.2756C56.0102 14.0214 55.7368 13.6375 55.6204 13.1959C55.5041 12.7544 55.5529 12.2856 55.7576 11.8775ZM3.8501 89V6.5C3.8501 6.00272 4.04764 5.52581 4.39927 5.17417C4.7509 4.82254 5.22782 4.625 5.7251 4.625H55.1913L52.4126 10.2013C51.7995 11.4277 51.6555 12.8359 52.0077 14.1611C52.3599 15.4863 53.184 16.6372 54.3251 17.3975L67.6001 26.2531V89C67.6001 89.4973 67.4026 89.9742 67.0509 90.3258C66.6993 90.6775 66.2224 90.875 65.7251 90.875H5.7251C5.22782 90.875 4.7509 90.6775 4.39927 90.3258C4.04764 89.9742 3.8501 89.4973 3.8501 89ZM16.9751 19.625C16.9751 19.1277 17.1726 18.6508 17.5243 18.2992C17.8759 17.9475 18.3528 17.75 18.8501 17.75H35.7251C36.2224 17.75 36.6993 17.9475 37.0509 18.2992C37.4026 18.6508 37.6001 19.1277 37.6001 19.625C37.6001 20.1223 37.4026 20.5992 37.0509 20.9508C36.6993 21.3025 36.2224 21.5 35.7251 21.5H18.8501C18.3528 21.5 17.8759 21.3025 17.5243 20.9508C17.1726 20.5992 16.9751 20.1223 16.9751 19.625ZM16.9751 27.125C16.9751 26.6277 17.1726 26.1508 17.5243 25.7992C17.8759 25.4475 18.3528 25.25 18.8501 25.25H35.7251C36.2224 25.25 36.6993 25.4475 37.0509 25.7992C37.4026 26.1508 37.6001 26.6277 37.6001 27.125C37.6001 27.6223 37.4026 28.0992 37.0509 28.4508C36.6993 28.8025 36.2224 29 35.7251 29H18.8501C18.3528 29 17.8759 28.8025 17.5243 28.4508C17.1726 28.0992 16.9751 27.6223 16.9751 27.125ZM16.9751 42.125C16.9751 41.6277 17.1726 41.1508 17.5243 40.7992C17.8759 40.4475 18.3528 40.25 18.8501 40.25H52.6001C53.0974 40.25 53.5743 40.4475 53.9259 40.7992C54.2776 41.1508 54.4751 41.6277 54.4751 42.125C54.4751 42.6223 54.2776 43.0992 53.9259 43.4508C53.5743 43.8025 53.0974 44 52.6001 44H18.8501C18.3528 44 17.8759 43.8025 17.5243 43.4508C17.1726 43.0992 16.9751 42.6223 16.9751 42.125ZM16.9751 53.375C16.9751 52.8777 17.1726 52.4008 17.5243 52.0492C17.8759 51.6975 18.3528 51.5 18.8501 51.5H52.6001C53.0974 51.5 53.5743 51.6975 53.9259 52.0492C54.2776 52.4008 54.4751 52.8777 54.4751 53.375C54.4751 53.8723 54.2776 54.3492 53.9259 54.7008C53.5743 55.0525 53.0974 55.25 52.6001 55.25H18.8501C18.3528 55.25 17.8759 55.0525 17.5243 54.7008C17.1726 54.3492 16.9751 53.8723 16.9751 53.375ZM16.9751 64.625C16.9751 64.1277 17.1726 63.6508 17.5243 63.2992C17.8759 62.9475 18.3528 62.75 18.8501 62.75H52.6001C53.0974 62.75 53.5743 62.9475 53.9259 63.2992C54.2776 63.6508 54.4751 64.1277 54.4751 64.625C54.4751 65.1223 54.2776 65.5992 53.9259 65.9508C53.5743 66.3025 53.0974 66.5 52.6001 66.5H18.8501C18.3528 66.5 17.8759 66.3025 17.5243 65.9508C17.1726 65.5992 16.9751 65.1223 16.9751 64.625ZM16.9751 75.875C16.9751 75.3777 17.1726 74.9008 17.5243 74.5492C17.8759 74.1975 18.3528 74 18.8501 74H52.6001C53.0974 74 53.5743 74.1975 53.9259 74.5492C54.2776 74.9008 54.4751 75.3777 54.4751 75.875C54.4751 76.3723 54.2776 76.8492 53.9259 77.2008C53.5743 77.5525 53.0974 77.75 52.6001 77.75H18.8501C18.3528 77.75 17.8759 77.5525 17.5243 77.2008C17.1726 76.8492 16.9751 76.3723 16.9751 75.875Z" fill="#304FF2"/>
</svg>
