<svg width="117" height="117" viewBox="0 0 117 117" fill="none" xmlns="http://www.w3.org/2000/svg">
<path d="M58.2 116.325H35.7C35.2027 116.325 34.7258 116.127 34.3742 115.776C34.0226 115.424 33.825 114.947 33.825 114.45V91.95C33.8325 98.4124 36.4029 104.608 40.9725 109.178C45.5421 113.747 51.7376 116.318 58.2 116.325ZM78.1013 46.8938L37.575 87.4238V91.95C37.5815 97.4181 39.7565 102.66 43.6231 106.527C47.4896 110.394 52.7319 112.569 58.2 112.575H62.7263L103.253 72.045L78.1013 46.8938ZM111.795 41.6438L108.499 38.3475C107.064 36.9116 105.361 35.7725 103.486 34.9953C101.611 34.2181 99.601 33.8181 97.5713 33.8181C95.5416 33.8181 93.5317 34.2181 91.6567 34.9953C89.7817 35.7725 88.0783 36.9116 86.6438 38.3475L80.7525 44.2388L105.904 69.3938L111.795 63.5025C113.231 62.068 114.37 60.3645 115.147 58.4895C115.924 56.6145 116.324 54.6047 116.324 52.575C116.324 50.5453 115.924 48.5355 115.147 46.6605C114.37 44.7855 113.231 43.082 111.795 41.6475V41.6438Z" fill="#F6C975"/>
<path d="M88.2 0.0750256H58.1869C55.922 0.0717869 53.695 0.65586 51.7233 1.77023C49.7515 2.8846 48.1024 4.49118 46.9369 6.43315C45.7706 4.49484 44.1231 2.89088 42.1543 1.77687C40.1855 0.662857 37.9622 0.0766179 35.7 0.0750256H5.70001C4.20817 0.0750256 2.77743 0.667658 1.72254 1.72255C0.667644 2.77744 0.0750122 4.20818 0.0750122 5.70003V73.2C0.0779894 75.6855 1.06667 78.0684 2.82417 79.8259C4.58168 81.5834 6.96452 82.5721 9.45001 82.575H84.45C86.9355 82.5721 89.3183 81.5834 91.0759 79.8259C92.8334 78.0684 93.822 75.6855 93.825 73.2V5.70003C93.825 4.20818 93.2324 2.77744 92.1775 1.72255C91.1226 0.667658 89.6919 0.0750256 88.2 0.0750256ZM48.825 13.2C48.8228 11.9694 49.0633 10.7503 49.5329 9.61278C50.0024 8.4752 50.6917 7.44141 51.5613 6.57059C52.4309 5.69977 53.4637 5.00903 54.6006 4.5379C55.7375 4.06678 56.9562 3.82453 58.1869 3.82503H88.2C88.6973 3.82503 89.1742 4.02257 89.5258 4.3742C89.8775 4.72583 90.075 5.20274 90.075 5.70003V65.7C90.075 66.1973 89.8775 66.6742 89.5258 67.0259C89.1742 67.3775 88.6973 67.575 88.2 67.575H58.185C56.4611 67.5706 54.7535 67.9082 53.161 68.5683C51.5685 69.2284 50.1227 70.1979 48.9075 71.4206C48.8794 71.4506 48.855 71.4844 48.825 71.5144V13.2ZM3.82501 5.70003C3.82501 5.20274 4.02256 4.72583 4.37419 4.3742C4.72582 4.02257 5.20273 3.82503 5.70001 3.82503H35.7C38.1836 3.828 40.5647 4.81513 42.3219 6.5702C44.0791 8.32528 45.0691 10.7052 45.075 13.1888V13.2V71.5444C43.8573 70.2893 42.4002 69.2912 40.7899 68.6094C39.1795 67.9276 37.4487 67.5759 35.7 67.575H5.70001C5.20273 67.575 4.72582 67.3775 4.37419 67.0259C4.02256 66.6742 3.82501 66.1973 3.82501 65.7V5.70003ZM3.82501 73.2V70.98C4.42549 71.2021 5.05981 71.3188 5.70001 71.325H35.7C37.8606 71.327 39.9543 72.0742 41.628 73.4405C43.3018 74.8068 44.453 76.7086 44.8875 78.825H9.45001C7.95817 78.825 6.52743 78.2324 5.47254 77.1775C4.41764 76.1226 3.82501 74.6919 3.82501 73.2ZM84.45 78.825H49.0125C49.442 76.7085 50.59 74.8056 52.2621 73.4388C53.9341 72.0719 56.0273 71.3251 58.1869 71.325H88.2C88.8402 71.3188 89.4745 71.2021 90.075 70.98V73.2C90.075 74.6919 89.4824 76.1226 88.4275 77.1775C87.3726 78.2324 85.9419 78.825 84.45 78.825ZM11.325 18.825C11.325 18.3277 11.5226 17.8508 11.8742 17.4992C12.2258 17.1476 12.7027 16.95 13.2 16.95H35.7C36.1973 16.95 36.6742 17.1476 37.0258 17.4992C37.3775 17.8508 37.575 18.3277 37.575 18.825C37.575 19.3223 37.3775 19.7992 37.0258 20.1509C36.6742 20.5025 36.1973 20.7 35.7 20.7H13.2C12.7027 20.7 12.2258 20.5025 11.8742 20.1509C11.5226 19.7992 11.325 19.3223 11.325 18.825ZM11.325 52.575C11.325 52.0777 11.5226 51.6008 11.8742 51.2492C12.2258 50.8976 12.7027 50.7 13.2 50.7H35.7C36.1973 50.7 36.6742 50.8976 37.0258 51.2492C37.3775 51.6008 37.575 52.0777 37.575 52.575C37.575 53.0723 37.3775 53.5492 37.0258 53.9009C36.6742 54.2525 36.1973 54.45 35.7 54.45H13.2C12.7027 54.45 12.2258 54.2525 11.8742 53.9009C11.5226 53.5492 11.325 53.0723 11.325 52.575ZM11.325 41.325C11.325 40.8277 11.5226 40.3508 11.8742 39.9992C12.2258 39.6476 12.7027 39.45 13.2 39.45H35.7C36.1973 39.45 36.6742 39.6476 37.0258 39.9992C37.3775 40.3508 37.575 40.8277 37.575 41.325C37.575 41.8223 37.3775 42.2992 37.0258 42.6509C36.6742 43.0025 36.1973 43.2 35.7 43.2H13.2C12.7027 43.2 12.2258 43.0025 11.8742 42.6509C11.5226 42.2992 11.325 41.8223 11.325 41.325ZM11.325 30.075C11.325 29.5777 11.5226 29.1008 11.8742 28.7492C12.2258 28.3976 12.7027 28.2 13.2 28.2H35.7C36.1973 28.2 36.6742 28.3976 37.0258 28.7492C37.3775 29.1008 37.575 29.5777 37.575 30.075C37.575 30.5723 37.3775 31.0492 37.0258 31.4009C36.6742 31.7525 36.1973 31.95 35.7 31.95H13.2C12.7027 31.95 12.2258 31.7525 11.8742 31.4009C11.5226 31.0492 11.325 30.5723 11.325 30.075ZM56.325 18.825C56.325 18.3277 56.5226 17.8508 56.8742 17.4992C57.2258 17.1476 57.7027 16.95 58.2 16.95H80.7C81.1973 16.95 81.6742 17.1476 82.0258 17.4992C82.3775 17.8508 82.575 18.3277 82.575 18.825C82.575 19.3223 82.3775 19.7992 82.0258 20.1509C81.6742 20.5025 81.1973 20.7 80.7 20.7H58.2C57.7027 20.7 57.2258 20.5025 56.8742 20.1509C56.5226 19.7992 56.325 19.3223 56.325 18.825ZM56.325 52.575C56.325 52.0777 56.5226 51.6008 56.8742 51.2492C57.2258 50.8976 57.7027 50.7 58.2 50.7H80.7C81.1973 50.7 81.6742 50.8976 82.0258 51.2492C82.3775 51.6008 82.575 52.0777 82.575 52.575C82.575 53.0723 82.3775 53.5492 82.0258 53.9009C81.6742 54.2525 81.1973 54.45 80.7 54.45H58.2C57.7027 54.45 57.2258 54.2525 56.8742 53.9009C56.5226 53.5492 56.325 53.0723 56.325 52.575ZM56.325 41.325C56.325 40.8277 56.5226 40.3508 56.8742 39.9992C57.2258 39.6476 57.7027 39.45 58.2 39.45H80.7C81.1973 39.45 81.6742 39.6476 82.0258 39.9992C82.3775 40.3508 82.575 40.8277 82.575 41.325C82.575 41.8223 82.3775 42.2992 82.0258 42.6509C81.6742 43.0025 81.1973 43.2 80.7 43.2H58.2C57.7027 43.2 57.2258 43.0025 56.8742 42.6509C56.5226 42.2992 56.325 41.8223 56.325 41.325ZM56.325 30.075C56.325 29.5777 56.5226 29.1008 56.8742 28.7492C57.2258 28.3976 57.7027 28.2 58.2 28.2H80.7C81.1973 28.2 81.6742 28.3976 82.0258 28.7492C82.3775 29.1008 82.575 29.5777 82.575 30.075C82.575 30.5723 82.3775 31.0492 82.0258 31.4009C81.6742 31.7525 81.1973 31.95 80.7 31.95H58.2C57.7027 31.95 57.2258 31.7525 56.8742 31.4009C56.5226 31.0492 56.325 30.5723 56.325 30.075Z" fill="#304FF2"/>
</svg>
