<svg width="512" height="512" viewBox="0 0 512 512" fill="none" xmlns="http://www.w3.org/2000/svg">
<g clip-path="url(#clip0)">
<path d="M6.53434 486.858L25.1422 505.466C33.8539 514.176 48.0288 514.178 56.7436 505.466C66.4816 495.727 148.873 413.337 158.403 403.805C163.67 398.539 166.048 390.936 164.432 383.329L184.788 362.972C215.344 386.689 252.277 401.351 291.056 404.819C295.186 405.193 298.827 402.141 299.195 398.016C299.564 393.89 296.519 390.245 292.392 389.876C248.582 385.958 207.398 366.624 176.388 335.615C103.191 262.413 102.754 143.566 176.388 69.9333C249.635 -3.31469 368.822 -3.31469 442.069 69.9333C515.317 143.181 515.317 262.367 442.069 335.615C410.987 366.696 369.788 385.966 326.064 389.876C321.937 390.245 318.891 393.89 319.26 398.016C319.61 401.915 322.881 404.85 326.723 404.85C326.947 404.85 327.173 404.84 327.4 404.82C374.623 400.597 419.113 379.788 452.679 346.224C531.776 267.126 531.776 138.423 452.679 59.3252C373.579 -19.7731 244.877 -19.7731 165.779 59.3252C91.3987 133.705 88.0131 249.068 148.997 327.246L128.687 347.556C121.179 345.96 113.567 348.228 108.197 353.599L6.53334 455.258C-2.17845 463.97 -2.17745 478.146 6.53434 486.858V486.858ZM158.688 338.77C163.256 343.817 168.045 348.62 173.237 353.305L156.371 370.171L141.829 355.629L158.688 338.77ZM118.803 364.206C121.72 361.289 126.367 361.392 129.177 364.198C129.18 364.201 129.184 364.203 129.187 364.206L147.794 382.814C147.795 382.816 147.797 382.817 147.798 382.819C150.653 385.682 150.656 390.333 147.793 393.196L131.771 409.218L102.781 380.228L118.803 364.206ZM17.1425 465.867L92.1719 390.837L121.162 419.827L46.1335 494.857C43.2699 497.719 38.6119 497.719 35.7503 494.857L17.1425 476.249C14.2809 473.386 14.2809 468.728 17.1425 465.867Z" fill="white"/>
<path d="M378.517 103.08V88.3561C378.517 84.2133 375.159 80.8546 371.015 80.8546C366.871 80.8546 363.514 84.2133 363.514 88.3561V98.7872H254.939V88.3561C254.939 84.2133 251.582 80.8546 247.438 80.8546C243.294 80.8546 239.936 84.2133 239.936 88.3561V103.08C239.936 142.809 259.806 180.702 294.182 203.056C260.69 224.834 239.936 262.247 239.936 303.031V317.755C239.936 321.898 243.294 325.257 247.438 325.257C251.582 325.257 254.939 321.898 254.939 317.755V307.324H363.514V317.755C363.514 321.898 366.871 325.257 371.015 325.257C375.159 325.257 378.517 321.898 378.517 317.755V303.031C378.517 263.306 358.651 225.412 324.271 203.057C357.794 181.257 378.517 143.827 378.517 103.08V103.08ZM255.484 113.791H362.969C362.396 119.452 361.363 124.998 359.915 130.393H258.539C257.091 124.998 256.058 119.452 255.484 113.791V113.791ZM273.076 161.996C269.492 156.762 266.384 151.212 263.814 145.395H354.639C352.069 151.211 348.961 156.762 345.377 161.996H273.076ZM362.969 292.321H255.484C256.058 286.66 257.091 281.114 258.539 275.72H359.915C361.363 281.114 362.396 286.66 362.969 292.321ZM345.377 244.115C348.961 249.349 352.069 254.899 354.639 260.716H263.814C266.384 254.9 269.492 249.349 273.076 244.115H345.377ZM332.872 229.112H285.581C292.482 222.27 300.408 216.326 309.226 211.519C318.046 216.326 325.972 222.27 332.872 229.112V229.112ZM309.226 194.593C300.408 189.786 292.482 183.842 285.581 176.999H332.872C325.972 183.842 318.045 189.786 309.226 194.593V194.593Z" fill="white"/>
<path d="M458.944 182.06C459.507 186.165 463.301 189.027 467.398 188.47C471.503 187.906 474.371 184.12 473.806 180.016C468.837 143.886 452.551 111.131 426.71 85.2895C361.775 20.3552 256.681 20.3501 191.741 85.2895C126.961 150.071 126.961 255.476 191.741 320.256C224.132 352.646 266.679 368.842 309.225 368.842C351.772 368.842 394.319 352.646 426.71 320.256C454.449 292.515 471.523 255.727 474.781 216.669C475.126 212.541 472.059 208.915 467.93 208.57C463.801 208.237 460.175 211.292 459.83 215.421C456.865 250.949 441.335 284.412 416.098 309.648C357.168 368.579 261.28 368.579 202.349 309.648C143.418 250.717 143.418 154.83 202.349 95.8976C261.42 36.8265 357.024 36.8225 416.098 95.8976C439.609 119.406 454.424 149.201 458.944 182.06V182.06Z" fill="white"/>
</g>
<defs>
<clipPath id="clip0">
<rect width="512" height="512" fill="white"/>
</clipPath>
</defs>
</svg>
