<svg width="600" height="450" viewBox="0 0 750 563" fill="none" xmlns="http://www.w3.org/2000/svg"><g clip-path="url(#clip0)" fill-rule="evenodd" clip-rule="evenodd"><path d="M407.14 247.25c-.83-1.22-2.3-1.82-3.48-2.62.52 1.2.57 1.57.04 2.72-.41.89-.69 1.83-1.08 2.73-.28.61-.71 1.23-.88 1.86-.2.73-.1 1.48-.37 2.21 3.2-.87 6.05-2.9 8.79-4.78-.51-.07-1.86-.05-2.29-.42-.35-.3-.42-1.26-.73-1.7zM484.34 236.43c1.4 1.1 1.4 1.1 1.45 3-1.18-.71-1.57-1.6-1.45-3zm-67.79 4.97c-.65.05-.8-1.82-.94-2.37l.63-.09c.3.32 1.44 2.36.31 2.46zm97.25 19.12a135.9 135.9 0 013.52-15.05c.72-2.42 1.54-4.82 2.42-7.18.77-2.05 2.22-4.28 2.48-6.43-2.32 2.1-4.2 4.71-6.2 7.1-1.9 2.3-3.9 4.54-5.7 6.92a6.05 6.05 0 00-1.45 3.32c-.05 1.36.73 2.2 1.3 3.34.58 1.2.97 2.68 1.26 3.98.32 1.42-.18 2.1-.66 3.4-1.05-.52-1.94-.8-2.7-1.73-.81-.99-1.5-2.1-2.26-3.12l-5-6.67a93.5 93.5 0 01-8.71-14c-2.52-5.04-4.78-10.23-7.23-15.31-.52-1.07-.73-2.24-2.11-2.24-1.02 0-1.89.64-2.85.89-.23.06-.48.1-.72.12 0 .24-.04.48-.12.7-.25.31-.34.19-.7.17-.4-.02-.7-.27-1.14-.24-.61.04-1.21.44-1.8.63v-1.4c-1.83.94-6.29 4.1-7.25.51-.09.66.09 1.83-.55 2.25-.43.28-.96-.01-1.42.05-.57.07-1.08.48-1.62.68-.03-.96-.77-.86-1.48-.99-.93-.16-1.74-.68-2.69-.51-.95.16-1.64.59-2.59.08-.64-.35-1.24-.83-1.88-1.2-.66-.36-.77-.62-1.05-1.27-.31-.72-.26-.56-1-.35-1.58.44-2.2-1.47-2.47-2.76-.68-3.17.1-6.62 2.18-9.09 2.69-3.17 5.53-6.29 9.04-8.58 3.24-2.12 6.68-4.74 10.47-5.77-3.02-6.76-7.33-13.06-11.17-19.38-1.1.25-1.75.85-2.93.66-.92-.15-.88-.08-1.22.89-.3.86-.48.98-1.3 1.24-.85.28-.17-.25-.8.42-.3.3-.45.62-.8.87-1.29.9-2.97.38-4.37.94-.97.4-.5.89-.99 1.56-.52.7-1.41.34-2.14.22-1.51-.24-1.97.27-2.29 1.7-.24 1.05-.4 1.6-1.53 1.82-.64.13-1.64-.38-2.05.03-.16.16-.09.6-.16.8-.14.38-.37.68-.63.97a5.86 5.86 0 01-2 1.38c-.7.3-1.44.13-2.1.38-1.04.4-.78 1.5-.75 2.38-.59-.14-.73-.12-1.08-.57-.16-.2-.07-.54-.39-.63-.27-.07-1.75.84-1.96 1.1-.61.76 0 1.83-.15 2.71-.15.88-.87 1.54-1.43 2.2l-.56-1.61c-.27.36-.66.61-.77 1.06-.07.23.12.55.02.78-.3.66-.6.24-1.15.27-.5.02-1.8.39-1.58 1.16.16.51 1.18.4 1.06 1.1-.15.84-1.25.28-1.7.46-.59.23-.35.73-.56 1.24-.35.9-1.06.97-1.8 1.4-.72.44-1 .96-1.33 1.7-.42.93-.38.68-1.27.6-.55-.05-.84.06-1.06.57-.18.41.13.93-.03 1.3-.19.48-1.19 1.01-1.53 1.5-.94 1.3-1.34 2.9-2.1 4.29-.34.62-.73 1.21-1.15 1.78-.57.75-.93.61-1.69 1.02-1.24.65-.88 2.39-1.01 3.53-.08.6-.22 1.14-.64 1.59-.26.27-1.15.57-.97 1.1.21.65.93-.04.79.96-.1.8-1.02 1.46-1.22 2.26-.14.55.04 1.07-.1 1.63-.16.6-.63 1.06-.86 1.64-.23.57.13 1.3-.06 1.73-.23.5-1.07.37-1.3 1.03-.25.72.33 1.85.44 2.59.06.47.31.98-.09 1.37-.34.33-1.14.27-.8 1.08.17.38.77.3.83.87.06.44-.45 1.1-.73 1.4-.73.8-2.11 1.45-1.12 2.46.18.18.39.1.55.33.19.27.21.76.32 1.08.26.75.63 1.46 1.1 2.1 1.75 2.48 4.65 3.64 6.59 5.89 2.35-2.35 4.77-4.64 6.99-7.12 1.88-2.1 3.7-4.27 5.86-6.11 1.1-.95 2.38-1.72 3.3-2.87.9-1.1 1.22-2.48 1.89-3.7 1.32-2.4 3.23-4.4 4.64-6.74 2.78 1.8 1.62 6.42.82 9.02a23.45 23.45 0 01-2 4.55c-.68 1.22-1.65 2.44-1.98 3.83-.27 1.12.13 2.07.78 2.99.94 1.31 2.03 2.54 3.02 3.82l7.2 9.35c.87-1.25 2.3-.43 3.45-.2 1.7.36 3.44.24 5.15.4 1.8.17 3.62.47 5.4.75 1.6.26.53 1 1.3 1.88 1.63-2.94 4.75-1.08 7.3-.82 1.6.16 3.29.08 4.85.28 1.58.2 3.15.74 4.78.9 3.1.3 5.88 1.36 8.91 1.9 1.6.3 3.22.5 4.82.8.57.1 1.57.16 1.89.74.37.7-.4 2.16-.6 2.79-.3.93-.53 2.36-1.15 3.14-.49.6-.61.23-1.24.2-.72-.02-.43.13-.93.69-.62.7-1.48.7-2.34.77-.4.04-1.17-.03-1.48.24-.42.38-.05.4-.09 1-.05 1.02-1.47 1.78-2.3 2.19-.53.25-1.1.46-1.7.42-.37-.03-.82-.39-1.2-.24-.53.22-.5 1.23-.8 1.65-.58.8-1.35.2-2.1.6-.9.49-1.42 1.63-2.27 2.2-1.7 1.1-3.66 1.23-4.5-.87-.34.7-1.14 1.8-.84 2.5.26.63 1.1 1.1 1.67 1.4a74 74 0 014.88 2.82c3.65 2.36 7.17 4.94 11.07 6.89 3.85 1.91 7.9 3.97 12.14 4.81 4.36.86 8.82.32 12.87-1.49a6.8 6.8 0 01-.73-3.36c-.04-1.3-.06-2.6-.08-3.9-.03-2.6-.02-5.2.07-7.8.18-5.22.75-10.37 1.68-15.5zM559.87 256.8c-.39-1.4-.84-2.86-.92-4.31-.07-1.05.32-2.6-.3-3.52-.27-.39-.74-.53-.9-1-.12-.37.07-1.12.02-1.53-.13-1.07-.56-2.07-.95-3.07-.9-2.27-.92-4.64-1.66-6.94-.41-1.26-1.17-2.33-1.62-3.57-.41-1.12-.62-2.31-.75-3.5-.13-1.26-.13-2.52-.44-3.76-.28-1.16-.63-2.3-.89-3.46a64.06 64.06 0 00-2.3-8.18c-.36-1.01-.63-2.7-1.52-3.39-.66-.49-1.51-.36-2.27-.31-.86.06-1.57.1-2.14.82-.74.92-1.2 1.91-2.05 2.78-.87.88-1.94 1.64-2.72 2.59-.61.75-.26 1 .4 1.64-.86.11-1.56-.12-2.17.52-.63.66-1.11 1.74-1.51 2.54-.9 1.82-1 3.44-1.27 5.4l-.72-1.11c-.3.82-.74 1.68-1.62 2.02-1.07.41-1.04.28-1.04 1.48 0 1.72-1.43 2.8-2.34 4.11-.5.73-1 1.57-1.33 2.39-.42 1.05-.15 1.75-.05 2.82.15 1.62-1.4 2.85-2.34 4-.29.35-.45.53-.62.96-.12.32.05.53-.2.87-.43.63-1.35.46-1.7 1.22-.34.72.12 1.44.2 2.15.1 1.14-.57 2.18-.94 3.21-.41 1.13-.72 2.29-.87 3.47-.09.68-.12 1.37-.1 2.06.01.31.26 1.11.05 1.4-.27.38-.86-.05-1.1.36-.51.85 1.38 1.13 1.75 1.26-.44.27-1.02.47-1.37.86-.47.52-.18.82-.38 1.4-.21.64-.97.8-1.2 1.37-.25.57.22.7.47 1.17.6 1.17.06 2.9-.18 4.1-.1.48-.05 1.72-.35 2.1-.19.23-.62.14-.78.35-.36.44.01.61.16 1.11.18.63.15 1.3-.02 1.94-.16.6-.55 1.15-.66 1.75-.12.67.21.9.44 1.52.5 1.38.15 3.09-.02 4.5-.2 1.63.37 3.18-.06 4.7l-1.37-.6.44 2.17.21 1.07c-.09.46.07.65.47.55.78.23 1.99-1 2.63-1.37 1.95-1.1 4.04-1.89 6.06-2.83 2.09-.99 3.84-2.31 5.76-3.57 1.98-1.3 4.06-2.4 5.99-3.76 8.33-5.92 17.36-10.9 26.05-16.29-2.43.28-2.87-2.94-3.36-4.66zM570.18 189.52c1.3.38 1 1.49.5 2.45-.5-.48-1.38-1.03-1.61-1.7-.3-.85.36-.96 1.1-.75zm36.45 32.68c-.07.33-.14 1.7-.4 1.92-.24.19-1.44-.08-1.75-.1-1.01-.05-1.78.15-2.73.39-1.64.4-1.94-.62-1.95-2.14-1.26 2.48-3.35 3.73-6.04 4.2-1.2.22-2.48.48-3.7.53-.9.04-1.92-.04-2.82-.2-.57-.1-1.09-.44-1.62-.55-1.18-.22-.12.63-.97.86-.22.05-1.04-.3-1.36-.32-.52-.03-1.04.06-1.56.03-1.18-.06-1.57-.72-2.5-1.22-.49-.27-.82-.23-1.35-.16-.57.08-.13.28-.8.16-.22-.04-.62-.28-.8-.36a9.8 9.8 0 01-3.25-2.08c-.71-.72-1.62-1.21-2.34-1.93-.26-.26-.4-.58-.63-.84-.3-.35-.31-.26-.68-.52-.43-.3-.76-.47-1.02-.93-.44-.8-.42-1.9-.5-2.79-.23-3.01.31-5.7 1.75-8.35 1.55-2.89 2.84-5.94 4.66-8.68a55.99 55.99 0 015.74-6.97c.57-.6 1.2-1.33 1.89-1.8.45-.31 1.04-.45 1.47-.8 1-.8.52-2.29.52-3.41.32.56.82 1.41 1.58 1.22.5-.12.52-.69.89-.9.28-.18.6-.1.92-.12-1.23-6.01-2.8-12.07-4.77-17.88a774.59 774.59 0 00-16.02 16.06c-2.7 2.8-5.19 5.8-7.88 8.62-2.82 2.97-5.7 5.87-8.56 8.8.78.76 1.66 1.27 2.2 2.23.48.9 1.04 1.57 1.71 2.33 1.52 1.72 2.24 4.28 3.18 6.35.18.4.23.53.19.9-.04.22-.27.42-.27.7 0 .34.16.58.37.84.19.25.76.53.8.85.06.38-.33.64-.47 1-.57 1.58 1.33 2.7 1.97 3.95.35.68.52 1.37.06 2.05-.37.56-1.19.77-.75 1.62.27.53 1.03.24.91.98-.06.4-.82.77-.1 1.2.57.35 1.26-.28 1 .81-.13.49-.78.98-.6 1.52.19.53 1.13.61 1.51 1.03.48.52.69 1.4.78 2.07.32 2.32.86 4.43 1.39 6.7.36 1.53-.56 1.55-1.92 1.56.92 1.28 1.82 2.57 2.79 3.8.95 1.21 1.2 3.09 1.65 4.55l1.58 5.28c.24.8.4 1.58.09 2.4-.37.92-.36.92-.2 1.88a172.8 172.8 0 0012.23-7.88c1.92-1.33 3.85-2.65 5.75-4 1.5-1.08 2.97-2.24 3.93-3.83 2.23-3.7 5.52-6.61 8.5-9.74 1.53-1.59 2.94-3.56 4.8-4.77 1.8-1.17 3.7-2.2 5.51-3.36l-2-2.76z" fill="#304FF2"/><path d="M472.9 271.96c1.73-.81 3.31-1.92 4.99-2.83 1.45-.8 2.77-1.18 4.02-2.27.52-.46 1.01-.64 1.63-.94.77-.38 1.36-1.07 2.06-1.58-1.77-.69-3.5-1.75-5.45-1.77-.86-.01-1.66.3-2.52.14a5.42 5.42 0 01-2.27-1.14c-1.27-.94-1.83-.8-3.2-.02-.33.19-.78.6-1.18.59-.65-.02-.55-.42-.83-.86-.25-.4.07-.45-.4-.46-.28-.01-.4.38-.72.44-.6.12-1.72-.47-2.31-.57-1-.19-1.78.03-2.77.1a7.78 7.78 0 01-3-.5c-.87-.3-1.72-.73-2.6-1-1.17-.35-1.4.1-2.47.35-1.63.38-3.21-1.97-4.7-.73 2.18 3.19 5.18 5.88 7.94 8.6 1.5 1.45 3 2.87 4.63 4.17.74.59 1.5 1.15 2.24 1.72l1.02.78c.61.47.55.61 1.13.34.78-.36 1.38-1.13 2.23-1.5.84-.36 1.7-.66 2.53-1.06zM474 202.08c.06 1.44.95 2.61-.31 3.83l-.11-2.14c-.04-.74-.42-1.55.41-1.69zm-1.41-6.25c-.21.62-.48 1.07-1.08 1.4-.85.45-2.02-.3-2.62.36-.59.65-.52 2.17-1.3 2.7-.25.18-.52.06-.82.28-.25.19-.26.64-.52.84-.42.33-.78 0-1.18.18-.45.22-.53.73-.64 1.18-.12.44-.12 1-.44 1.35-.4.41-1.3.71-1.78 1l-5.18 3.23c.52.52 1.65 1.11 1.78 1.88.09.52-.27.58.16 1 .2.18.9.38 1.13.5.98.49 1.97.92 3.04 1.15 1.28.28 2.55.15 3.82.45 1.33.32 2.64.56 4.02.53 1.17-.02 2.28-.35 3.44-.45 2.18-.19 5 0 6.78-1.53a15.43 15.43 0 00-.94-4.28c-.53-1.38-1.08-2.75-1.64-4.12a76.8 76.8 0 00-3.7-8.06c-.3 1.84-1-.58-1.7-.6-.5 0-.5.64-.63 1zM593.26 215.74c.96.24 1.73.36 2.63.77.66.3.92.47 1.5-.05.31-.28.37-.7.78-.92.4-.2.94-.14 1.37-.16 1.08-.06 2.16-.08 3.24-.12l-3.73-3.59c-.2.33-.71 1.56-1.1 1.63-.1.03-.46-.36-.66-.37-.2-.02-.35.08-.53.16-.46.2-.66.67-1.18.8-.5.12-1.07-.11-1.59-.12-.13.48-.5 1.35-.73 1.97zM591.74 200.22c.22-.9-.25-1.82-.1-2.73l-.32-.47c-.24.54-.4 1.07-.72 1.57-.27.41-.7.76-.88 1.23-.33.86.09 1.57.5 2.33.57-.63 1.31-1.08 1.52-1.94zM584.34 202.15c-.76.02-.47.37-.58.93-.06.36-.24.67-.43.97-.39.6-1.32 1.21-.79 2.03.46.69.48-.17.86.17.4.35-2.22 3.02-2.61 3.16-.21.08-.44-.16-.64 0-.19.16.06 1.7.05 2.01-.02.82-.07 1.7.6 2.3.77.67 2.05.7 2.97 1.09.63.26 1.22.64 1.88.82.7.19 1.3-.2 1.9-.11.46.07 1.34.8 1.8 1.02.62.3.74.34 1.34.11.33-.12.97-.37 1.2-.66.33-.43.08-.42.12-1.01.08-1.08 1.2-.96 1.98-1.26-1.53-.46-2.38-2.1-3.13-3.45-.33-.6-1-1.3-1.19-1.97-.22-.83.4-1.36.77-2.06-.5.2-2.5 1.12-1.54.04.3-.34 2.15-.88 1.4-1.76-.46-.53-1.05.55-1.57.44-.61-.12-1.33-1.14-1.84-1.47-.61-.4-1.8-1.36-2.55-1.34zM400.46 232.94a27.5 27.5 0 011.2-7.57c1.53-5.04 4.77-9.46 5.81-14.66.5-2.5.34-5.04.82-7.55.51-2.64.49-5.34.58-8.02.1-2.64.2-5.29.16-7.93 0-.95-.28-2.27-.03-3.18.2-.77.5-.49 1.16-.76-.46-.28-1.39-.42-1.49-1-.06-.4.32-.84.3-1.28-.01-.36-.18-.72-.29-1.06-.57-1.84-1.38-4.7-.33-6.47-.63-.1-.9-.3-1.48-.03-.63.28-1.26.93-1.81 1.36a34.6 34.6 0 00-3.16 2.75c-1.85 1.87-3.36 4.03-4.97 6.1-1.6 2.07-3.27 4.12-4.92 6.15-1.28 1.57-3.31 3.97-5.1 1.85-.54.71-.88 1.43-1.76 1.78a5.07 5.07 0 00-2.3 1.77c-.15.18-.62.96-.82 1.03-.4.15-.17-.13-.49-.34-.5-.32-.74-.54-.92.36-.08.4.13.76-.06 1.16-.18.36-.74.73-1.07.93-.8.46-1.69.41-2.53.7-1.4.46-2.28 2.58-3.8 1.56-.56-.36-1-.94-1.73-.55-.53.3-.63 1.02-1.4.73-.41-.15-.74-.68-1.22-.86-.33-.12-.69-.17-1.04-.2-.78-.1-1.57-.07-2.32-.31-1.64-.53-2.77-1.98-3.88-3.2-.83-.92-.58-1.5-.35-2.66.2-.98.4-1.97.65-2.95.48-1.94 1.1-3.86 2.04-5.63 1.08-2.07 2.66-3.8 4.11-5.6 3.01-3.77 5.85-7.74 9.12-11.3.61-.66 1.67-1.38 1.55-2.4-.12-1.11-1.38-.57-2.16-.37-2.08.51-4 1.52-5.99 2.3-1.1.43-2.57 1.28-3.74.72-1.11-.52-2.87-1.92-2.25-3.2.47-.99 1-1.7 1.24-2.82.23-.99.37-2 .58-3 .49-2.37 1.12-4.71 1.82-7.02 1.35-4.42 2.99-8.74 4.47-13.11-6.08.55-11.61 2.31-17.32 4.36.27.55.78 1.35.57 2-.25.8-1.33.53-1.6 1.08-.31.66.65 1.03.36 1.86-.24.7-.93 1.52-1.32 2.15 1.86 1.2 1.14-1.3 2.45-1.47.36 1.99-.48 2.93-1.25 4.6-.7 1.5.9 1.35 1.22 2.47-.91.15-1.54-.27-1.94.8-.17.47.09 2.14-.46 2.19-.4.03-.27-.7-.6-.77-.4-.08-1.44 1.38-1.7 1.65 1.11 0 1.71.12 2.76.54a70.5 70.5 0 01-2.07 1.95c.65.26 1.74.32 2.07 1.04.31.67-.15 1.88-.22 2.57.28-.42.68-1.4 1.1-1.66.57-.35.73 0 .7.76-.07 1.42-1.92 1.33-2.17 2.45-.26 1.12 1.34.34 1.38 1.45.02.63-.72 1.17-.35 1.84-.82-.46-.92-.73-1.36-1.62-.31 1.13-.99 2.92-.62 4.1.3.95.94.71.21 1.64-.26.35-.64.62-.64 1.08-.03 1.09 1.52 1.92.32 2.89-.47.37-.97.41-1.2 1.06-.21.56 0 1.31-.17 1.93-.33 1.2-1.21 2.11-2.1 2.96-.78.76-1.5 1.64-2.36 2.3-.47.35-.64.56-.95 1.03-.14.2.03.39-.15.57-.22.22-.75.2-1.04.25-.94.18-2.08.56-2.4 1.6-1.14-.86-2.3.2-3.42.54-.55.17-1.06.2-1.58-.08-.83-.47-.8-.53-1.8-.39-2.78.4-5.08-2.5-6.63-4.45a10.78 10.78 0 01-2.04-4.97c-.35-2.08-.71-4.15-.9-6.26-.4-4.42-.25-8.77-.1-13.2-5.14 2.72-9.97 6.26-14.58 9.8-4.6 3.52-8.53 7.93-12.66 12 1.05.07 2.06.44 3.12.46a3.02 3.02 0 002.22-.73c.2-.38.46-.45.8-.2 1.03-.08 2-.3 3.03-.45 1.31-.19 2.71.2 4 .43 2.42.42 4.98.14 7.3.9 2.05.65 4.17 1.59 6.13 2.44 1.9.81 3.55 2.6 5.15 3.88.93.74 1.94 1.05 2.92 1.65.94.59 1.65 1.86 2.32 2.72 1.6 2.07 3.4 3.99 5 6.05.72.93 1.37 1.93 1.77 3.03.21.56.23 1.2.43 1.74.18.5.52.78.82 1.2.99-2.66 1.94-5.32 2.96-7.96.39-1.01 2.14-5.88 3.51-4.01 1.18 1.6.51 4.9.14 6.7-.49 2.4-1.04 4.8-1.58 7.19-1.06 4.75-2.04 9.54-3.4 14.21-.09.3-.26.67-.29.99-.03.54-.22.23.15.61.2.2.64.14.82.37.33.42.22 1.9.2 2.4-.05.98-.6 1.41-.85 2.28-.22.76.16 1.54.17 2.3.01 1.9-.97 3.97-1.31 5.85-.22 1.2.46 3.08-1.21 3.3.42.7-.08 1-.44 1.53-.46.64-.49 1.29-.77 2.03-.26.65-.65 1.1-.72 1.75-.06.59.2 1.15 0 1.75-.24.7-.7.79-1.29 1.1-.57.3-.4-.05-.6.53-.1.25.02.84-.03 1.13-.26 1.4-1.37 2.32-2.29 3.3-.34.36-.8 1.2-1.22 1.43-.62.33-1.54-.24-2.11.06-.52.28-1.07 2.5-1.26 3.05-.41 1.15-.8 2.3-1.18 3.46-1.43 4.24-2.83 8.49-4.24 12.73.68-.01 1.8-.75 2.45-.45.75.35.27 1.37.55 1.93.2.4 1.37.34 1.92.37.91.05 1.33-.21 2.15-.45 1.42-.41 3.2-.27 4.68-.43 3.28-.36 6.65-.46 9.86-1.18 3.09-.68 6.04-1.82 9.07-2.71-1.42-.75-1.68-2.58-2.08-3.97-.23-.77-.31-1.38-.74-2.08a13 13 0 01-1.26-2.54c-1.23-3.5-1.29-7.86-.87-11.51a47.63 47.63 0 017.62-20.74c1.96-3 4.23-5.77 6.74-8.32 2.56-2.6 5.2-5.45 8.2-7.55 1.37-.96 2.96-1.29 4.15-2.42.91-.87 2.38-1.06 3.5-1.68a15.9 15.9 0 014.66-1.9c1.3-.26 2.75-.92 4.1-.75.93.11.58.55 1.13.97.71.56.45-.23.99-.43.45-.17.73.26 1.1.4.17.06.93.05.9.02.4.25.34 1.13.57 1.55.25.45.63.75.78 1.26.21.68.07 1.2-.21 1.78-.32.64-.8.95-.04 1.57-1.9 1.25-.72 3.76-2.15 5.28-.5.51-1.59 1.23-1.57 2.03.02.87 1.57 1.2.77 2.07-.72.78-2.29.41-3.13 1.11-.85.7-.56 1.91-.64 2.88-.06.74-.78 1.64-.48 2.35.2.47.54.4.55.91.02.42-.33.97-.44 1.37l-.95-.42c-.15.56-.41 1.1-.48 1.68-.09.68.2 1 .33 1.61.15.6-.18 1.66-.24 2.39-.07.83-.15 1.7-.74 2.34-.35.39-.83.45-1.21.74-.35.28-.46.65-.7 1.01l1.64-.48c-.22 1.04-.62 1.47-1.31 2.29l-.34-1.81c-.2.63-.56 1.13-.53 1.82.03.58.3 1.14.3 1.74 0 1.17-.86 1.94-.5 3.06.42 1.36.5 2.08.09 3.47-.37 1.22-.9 2.44-.98 3.72-.1 1.46.55 2.7.41 4.18-.06.68-.34 1.16.42 1.24.68.07 1.41-.5 2-.77 2.9-1.38 5.79-2.79 8.68-4.18-.54-.75-.41-.77-.07-1.7l.75-2.08c.54-1.48 1.07-2.96 1.63-4.43 1.02-2.74 2.4-5.45 2.9-8.35.45-2.62.22-5.23.26-7.87zM223.61 443.57l-2.87-1.81 1.67-1.28c.6-.46.88-.89 1.24.02.37.95-.08 2.08-.04 3.07zm-1.22-6.95c1.35 1.57-1.16 2.03-2.13 2.23.15-.76.71-3.9 2.14-2.23zm29.5-5.54c-.43-1.33-1.14-5.03-3.16-4.8-.48.06-.92.54-1.5.58-.48.03-.96-.1-1.44-.14a8.17 8.17 0 00-3.22.31c-1.18.4-2.06.95-3.34 1.04-.92.06-1.88-.02-2.78.24-1.53.44-1.43 1.8-1.21 3.16-.26-.3-.56-.52-.75-.87-.21-.39-.21-.83-.54-1.17-.66-.68-1.41-.36-2.22-.3-.91.06-2.09-.55-2.97-.2-.39.15-.62.59-1.03.77-.36.16-.75.19-1.14.23-.86.1-1.75.4-2.53.38-1.11-.03-2.05-.1-3.15.2-1.03.28-2 .7-3.03.98-1.14.31-2.32.34-3.47.57-2.31.45-4.58 1.49-6.94 1.62-1.23.07-2.42.07-3.65.26-.38.06-1.24.04-1.54.25-.35.24-.59 1.22-.78 1.63-2.11 4.36-3.65 9-5.33 13.54l-5.26 14.15c-.83 2.22-1.89 4.43-2.57 6.69-.64 2.1 1.83 3.56 3.14 4.88 3.22 3.22 6.47 6.4 10.12 9.14 3.67 2.75 7.83 4.6 12 6.45 4.3 1.9 8.8 2.98 13.44 3.63 2.39.34 4.78.57 7.18.76 2.4.2 4.44-.14 6.8-.44-.23-.55-.99-1.5-.9-2.12.03-.17.38-.45.46-.65.11-.28.1-.57.1-.86.04-1.37-.5-2.71 1.27-3.2l.18 2.26c.85-1.29.31-2.67-.2-3.96l-1.8 1.5c.11-.37 1.12-2.69.84-2.9-.28-.22-.78.36-1.07.08-.25-.23.02-.77-.05-1.06-.13-.47-.63-.83-.63-1.34.01-.68.88-1.21 1.3-1.65.6-.64.85-1.1.85-1.99 0-1.21.57-1.14 1.45-1.96 1.44-1.3 1.53-3.11.79-4.84l1.9-.14c-.59-1.49-1.2-2.97-1.77-4.45-.57-1.47.2-2.24.6-3.6l2.6 2.58c.25-2.79 1-5.6.64-8.41-.1-.87-.27-.82.13-1.47.29-.47.7-.83.95-1.34.5-1 .64-2.12.74-3.22.1-1.01.05-2.13.34-3.12.22-.75.93-1.17 1.1-2 .3-1.43-1.99-3.94-.65-5 .68-.54 1.52-.02 2.01-.91.42-.76.59-1.81.83-2.63.4-1.32.58-2.34.1-3.66-.41-1.16-.85-2.3-1.24-3.48zM272.94 363.84c-.34-.77-.86-.9-1.65-1.06-3.42-.66-6.86-.66-10.3-.98-.98-.09-1.96-.23-2.91-.46-.8-.2-1.56-.65-2.34-.84-1.57-.37-3.12.67-4.68.59-.8-.04-1.48-.52-2.24-.72-.63-.16-1.2-.03-1.83 0-1.24.09-2.48.03-3.71-.1a28.09 28.09 0 01-4.49-.82c-.97-.27-2.44-.55-3.16-1.3a52.43 52.43 0 00-4.2 7.9c-1.16 2.68-2.7 5.2-4.1 7.76-2.87 5.2-4.93 10.78-6.87 16.37 1.07-.5 1.84-1 2.65.12.76 1.05 1.66.7 2.88.9 1.97.32 2.19 2.5 2.62 4.13l1.9-2.38c.52.57 1.34.87 1.75 1.52.27.42.12.8.28 1.2.15.38.52.53.8.79 1.95-2.5 3.78 2.2 4.02 3.8l.73-1.86c.35.37.82.7 1.1 1.13.16.28.15.76.33.99.27.34.45.19.83.28.63.15.5.12.87.6 1.08 1.44 2.7 2.56 3.61 4.12 1.15 1.95 2.72 3.97 3.4 6.14.4 1.24.58 2.4 1.22 3.55.34.61.93 1.13 1.24 1.72.38.74-.3 1.05-.22 1.7.07.67 1.18 1.31 1.72 1.52.87.33 1.89.22 2.8.25 1.17.04 2.55 0 3.69-.34.99-.3.91-.8 1.18-1.68.32-1.03.89-2.02 1.33-3 .67-1.47 1-2.45-1-2.89 1.14-.19 3.02-.53 2.65-2.06-.17-.74-.84-1.23-.73-2.05.1-.83.74-1.1 1.35-1.54 1.16-.81 2-2.33 2.41-3.65.23-.74.3-1.3.05-2.04-.39-1.16-.6-2.11-.69-3.35l1.59.17c-.12-.47-.14-.84-.35-1.27-.07-.14-.44-.25-.42-.45.04-.34.5-.33.7-.57.53-.62.68-2.07.9-2.82.2-.71.32-1.58.7-2.22.73-1.19 1.62.5 1.44-1.2-.1-.85-.16-2.12-1.23-2.25-1.27-.15-1.63.36-1.51-1.17.08-1.08-.21-3.4.94-3.97.56-.28 1.46-.24 2.08-.3.73-.06 1.31.33 1.99.31 1.13-.04 1.07-1.66 1.2-2.48.58-3.66.87-7.38.51-11.08-.14-1.46-.23-3.3-.83-4.66z" fill="#304FF2"/><path d="M302.52 219.41c-.07-2.67-.07-2.67 1.41-3.68.4 1.7-.58 2.55-1.4 3.68zm26.93 6.82c.31-.64 1.63-.45 2.2-.44-.27.53-1.17 1.84-1.45 2.84-.3-.58-1.07-1.78-.75-2.4zm-3.46 18.91c.57-.46.44-.43.71-.99.22-.43.17-.65.63-.94.93-.57 1.07-.57 1.3-1.8.22-1.07.13-2.6.6-3.59.34-.7 1.45-.78 1.47-1.67.03-1.73-3.1-2.61-2.5-4.36.18-.52.74-.68.98-1.13.15-.27.05-.63.1-.92.1-.66.28-.8.89-.97-.07.3-.07.57.03.76.4.77 1.97-.15 2.33-.68.74-1.09.06-2.9-.19-4.03a13.5 13.5 0 01-.16-4.27l2.02 2.2c.37-1.1.43-1.7 1.45-2.4a5.76 5.76 0 001.93-2.04c.23-.37.39-.77.85-.9.44-.12 1.18.36 1.56.17.23-.11.49-1.32.56-1.54l.76-2.05c-1.44-3.63-2.61-7.48-4.76-10.78-1.97-3.02-4.82-5.47-7.7-7.61-1.43-1.07-2.88-2.17-4.4-3.14-1.5-.97-3.14-1.32-4.76-2.05-1.61-.73-3.48-1.49-5.27-1.58-.92-.04-1.8.17-2.71.05-1.02-.13-1.99-.48-3-.65 0 5.26-1.91 10.6-3.7 15.49-.82 2.22-1.99 4.28-2.84 6.49-.86 2.22-1.7 4.44-2.65 6.63-1.93 4.52-3.69 9.24-6.17 13.49-.23.38-.48.64-.35.98.04.1.36.28.44.37.25.26.46.56.63.88.4.74.6 1.57.9 2.36.69 1.8 1.92 3.56 2.88 5.25a22.34 22.34 0 004.15 5.12c.75.72 1.87 1.38 2.32 2.33.36.74.37 1.62.63 2.4l.26-1.87c.66 1.4 2.36 1.53 3.59 2.23 1.56.88 2.91 1.97 4.57 2.69 1.68.72 3.42 1.3 5.22 1.59.9.15 1.84.25 2.75.22.93-.05 1.6-.5 2.45-.83-2.65-2.28-1.69-6.24-.18-8.88l1.4 3.07c.3-.72 1.35-1.41.88-2.27-.28-.51-.64-.38-.72-.98-.07-.45.24-1.07.46-1.46.2.54.28 1.04.36 1.61zM318.26 262.17c-.6-1.31-3.04-1.62-4.27-1.87-2.04-.42-3.98-1.62-5.81-2.57a18.86 18.86 0 01-4.65-3.14c-.66-.64-1.2-.77-2.02-1.14a5.63 5.63 0 01-1.89-1.53c-1.18-1.31-2.73-2.3-3.63-3.85-.9-1.57-2.17-2.57-3.29-3.98-1.3-1.65-2.24-3.56-3.37-5.32-2.04 2.2-2.6 5.63-3.83 8.3a389.75 389.75 0 00-4.47 10.04 358.42 358.42 0 00-7.38 18.29c-.08.23-.52.98-.45 1.22.08.24.65.5.83.7.48.5.78 1.13 1.17 1.7a29.36 29.36 0 009.1 8.44c1.09.62 2.63 1.85 3.87 1.74 1.6-.14 2.81-.25 4.41.12 1.57.35 2.93.66 4.54.61.63-.01 1.28-.1 1.89.15.43.18.73.67 1.22.7.6.02.97-.56 1.54-.76.49-.19 1.02-.21 1.54-.19.75.04 2.52.72 3.13.14.66-.64.4-2.46 1.64-2.7.9-.18 2.76 1.49 3.5 1.95-.32-.97-1.43-2.86-.83-3.88.26-.44.63-.52 1.15-.41.6.12.66.55 1.14.82 2.61 1.47 2.38-5.51 2.3-6.58l-2-.12c0 .62.19 1.99-.22 2.24-.34.2-1.57 0-2 0 .9.86 1.33 1.6-.04 2.34-.93.5-2.1-.06-2.2-1.2-.1-1.2 1.78-1.4 1.44-2.58-.46-1.6-1.87 1.1-2.12 1.58a3.91 3.91 0 01.78-3.75c1.1-1.3 2.35-1.38 3.91-.97.15-.65.49-1.1.67-1.7.21-.71-.11-.54-.43-1.16-.51-1.01.51-1.36.7-2.23.12-.52-.09-.97-.34-1.4-.28-.49-.83-.82-.02-1.08.6-.2 1.3.38 1.87-.14.61-.56.39-1.73.72-2.43.5-1.05 1.06-.4 1.87-.1.6.22.79.2.86-.48.04-.33 0-.67-.26-.9-.42-.4-1-.12-1.48-.25-.65-.17-.68-.58-.93-1.16 1.13-.1 1.15.25 2.17.69.8.34 1.7.29 2.51-.01-.56-.2-1.25-.26-1.76-.6-.64-.46-.5-.98-.78-1.59zM388.36 224.12c1.11-2.06 2.12-4.16 3.12-6.28.6-1.28 1.92-3.05.36-4.1-1.05-.72-2.97-1.72-4.3-1.19-1.12.46-1.74 3.13-3.3 1.38-.28.8-1.24.67-1.81 1.11-.43.33-.4.66-.66 1.07-.26.43-.71.73-1.05 1.1a8.7 8.7 0 00-1-1.56c-.36.6-.28.96-.47 1.56-.11.34-.21.58-.57.72-.83.3-1.65-.7-2.07-1.27.25.88.38 1.9-.22 2.66-.46.59-1.21.7-1.65 1.32-.49.7-.52 1.22-1.4 1.5-.17.06-.75.21-.94.2-.19 0-.28-.33-.36-.33-.27 0-.73.34-.97.45.55.69.33.98-.26 1.42-.71.55-.67.6-1.02 1.44-.17.4-.37.75-.76.97-.39.22-.91.03-1.24.26-.66.46-.59 1.65-1.1 2.24-.7.78-1.6 1.33-2.24 2.2-.66.9-1.18 1.86-1.68 2.84-.97 1.9-2.27 3.67-2.4 5.82-.06.9.02 2.07-.4 2.9-.4.83-1.3 1.17-1.64 2.14-.3.82-.48 1.84-.58 2.7-.13 1.04.53 1.83.07 2.84a7.2 7.2 0 00-.6 2.72c-.08.98-.85 1.65-.38 2.5.47.81.94 1.4 1.07 2.4.15 1.06-.03 1.45-.95 1.9.56.95 1.17 1.69 1.48 2.76a8.1 8.1 0 001.34 2.79c1.3 1.7 2.93 2.6 2.9 4.96l17.63-5.9c-2.27-.42-1.1-4.4-.96-5.88.27-2.72.56-5.45.96-8.16.33-2.32 1-4.58 1.36-6.9.18-1.21.36-2.42.68-3.6.27-1.03.85-2 1.08-3 .53-2.3.85-4.42 1.8-6.61.92-2.1 2.05-4.09 3.13-6.1zM217.2 426.72c.46-.32.9-.26 1.43-.32 1.39-.15 2.6-.45 3.95-.85 1.62-.48 3.35-.75 5.02-1.04 1.6-.28 3.21-.21 4.78-.68 1.56-.47 2.8-.91 4.45-.97 1.8-.07 2.85-.91 4.32.59 1.32-1.84 3.22-1.83 5.32-2.12.75-.1 1.63 0 1.8-.9.15-.84-.51-1.94-.88-2.62-1.92-3.6-3.55-7.42-6.12-10.63-2.52-3.16-5.78-6.65-9.33-8.61-1.93-1.07-4.16-1.66-6.2-2.46-2.21-.87-4.38-1.86-6.57-2.8-1.13 1.22-1.23 2.69-1.8 4.23-.53 1.44-1.44 2.7-1.92 4.17-.97 2.92-1.8 5.81-3 8.65-2.56 6.01-5.05 12-7.37 18.1 3.66-.56 7.22-.92 10.92-1.15.72-.05.67-.22 1.2-.59zM410.89 202.33c1.05.11 2.29.38 2.95 1.28a80.14 80.14 0 019.81-11.3c3.45-3.4 6.96-6.78 10.74-9.82 7.65-6.16 16.1-11.1 24.84-15.53-2.77-3.2-5.5-6.43-8.29-9.6-2.6-2.96-5.67-5.46-8.71-7.95-.25 2.47-.68 5-.65 7.49.02 2.5.36 4.99.4 7.5.02 2.02-.04 4.2-.56 6.16-.4 1.53-1.32 3.77-2.99 4.25-2.28.67-6.13-.46-7.84-2.06-1.46-1.38-2.24-3.43-3.4-5.04-.8-1.1-1.64-1.58-2.98-1.14-2.01.66-3.95 1.85-5.84 2.8-2.13 1.06-4.26 2.15-6.4 3.21.15.1 1.02.55 1.06.75 0 .06-.49 1.1-.5 1.3-.06.8.32 1.56.57 2.3.25.8.46 1.61.42 2.45-.03.89-.52 1.5-.7 2.31-.18.86.45 1.17.78 1.91.33.77.35 1.6.2 2.41-.12.66-.52 1.35-.52 2.01 0 .36.31.76.2 1.13-.1.37-.54.58-.79.82 1.15.76 1.37.65.91 1.89a5.15 5.15 0 00-.07 2.68c.08.5.6 1.81.25 2.31-.32.46-1.36.1-1.83.09.17.92.42.83.86 1.6.28.5.25 1.14.22 1.7-.07 1.44-.96 1.6-2.14 2.1zM241.38 354.94c1.55.45 3.03.8 4.65.9 1.4.1 2.84.13 4.13.72.48.22 1 .81 1.52.8.61 0 .42-.43.85-.7.42-.27.73.03 1.13.14.6.16 1.22.16 1.84.18 1.74.06 3.47.09 5.21.13 1.56.04 3.08.3 4.63.3 1.64.02 3.28 0 4.92 0-1.29-2.48-2.37-5.08-4.4-7.07-1.01-1-1.87-2.13-2.84-3.19-.96-1.05-2.14-1.8-3.2-2.72-1.13-.97-2.04-1.99-3.34-2.74-.55-.3-1.15-.7-1.74-.89-.5-.15-.97-.09-1.42-.35-.53-.31-1-.96-1.51-1.33a16.5 16.5 0 00-1.68-1.04c-1.16-.64-2.35-1.2-3.47-1.9a226.96 226.96 0 00-9.35 19.44c1.25-1 2.58-1.12 4.07-.68zM331.3 160.3c.31.37.67.75.89 1.2.25.53.1 1.03.25 1.53.19.62.9.9.47 1.67-.3.53-1 .65-1.2 1.27-.37 1.1.9 2.12 1.4 3 .3.51.5 1.06.39 1.66-.08.37-.4.64-.48.97-.15.57 0-.01.06.57.07.6.32 1.23.36 1.86.05.66-.18 1.36-.06 2 .27 1.4 1.28 3.32 2.09 4.5.7 1.01 1.28 1.37 2.43.92 6.15-2.43 7.4-9.1 8.64-14.79a48.83 48.83 0 001.2-10.08c.03-3.6.31-7.22.05-10.83-1.02.3-2.3.4-3 1.27-.38.47-.39 1.06-.75 1.48-.5.59-1.52 1.08-2.16 1.56l-9.67 7.24-1.35 1c-.47.35-.6.3-.52.8.06.4.7.9.95 1.2zM374.49 180.4c-.58.76-1.68.93-2.38 1.62a6.38 6.38 0 00-1.4 2.42c-.44 1.17-.91 2.01-.94 3.28-.03 1.18-.4 2.26-.58 3.4-.12.78-.08 1.02.71 1.25 1.1.32 2.42.3 3.54.18 5.38-.55 9.62-4.71 12.88-8.6 3.74-4.47 6.7-9.47 9.92-14.3-1.54-.86-3.2-1.51-4.68-2.5-1.38-.93-2.61-2.1-3.97-3.09-.19.57-.19 1.22-.42 1.76-.27.63-.64.73-1.2 1.09a8.3 8.3 0 00-2.5 2.5c-.6.92-.9 2.09-1.63 2.9-.67.75-1.65 1.06-2.42 1.66-1.13.9-2.07 2.48-2.98 3.6-.74.9-1.26 1.93-1.95 2.83zM274.26 229.37c.21.56.64 1.36.33 1.96-.58 1.09-1.15-.52-1.72-.79.14.94.24 1.88.48 2.8.16.62.38 1.24.27 1.9-.13.69-.7 1.08-.7 1.78-.01.66.33 1.33.43 1.98-1.08-.13-1.3-.27-1.96.55.26.08.93.14 1.14.31.31.26.15.13.22.61.1.63-.02 1.68-.04 2.36-.03.78-.48.64-.82 1.18-.24.38-.18 1.1-.12 1.52.09.57.56 1.2.5 1.78-.09.7-.75.74-1.08 1.26-.43.68-.05 1.19.14 1.9.27.96.23 1.96.35 2.95 4.72-9.5 8.41-19.48 13.69-28.68l.38-.67-.46-.28c-.07-.46-.06-1.03-.1-1.55-.09-1.1-.4-2.19-.54-3.29-.15-1.23.12-2.42 0-3.64-.04-.42-.14-.84-.15-1.27-.01-.64.34-1.11.4-1.68.04-.58-.3-1.36-.3-1.98 0-.5.05-.98.12-1.47.19-1.3.58-2.56.77-3.85.4-2.67.43-5.38.89-8.04-.71 1.05-1.52 2.03-2.22 3.08-.7 1.05-1.16 2.21-1.8 3.3-.54.9-1.19 1.74-1.89 2.54-.58.67-.57.62-.34 1.45.1.35.24.77.18 1.15-.24 1.61-2.66 1.06-2.3 2.82.17.9.84 1.7.48 2.66-.33.85-1.3 1.28-1.68 2.13-.4.93.14 1.57.18 2.48.03.79-.32 1.4-.86 1.94-.74.74-.7 1.22-.9 2.27-.17.92-.5 1.83-.97 2.63-.47.81-1.05 1.05-.8 1.96.18.66.57 1.3.8 1.94zM263.04 243.91c.8 3.1 2.05 6.08 3.76 8.78.3-1.58.75-3.09.83-4.7.08-1.59.13-3.16.3-4.75.33-2.96.88-5.9 1.5-8.8 1.26-6.13 2.47-12.26 3.76-18.38-1.92 3.06-3.84 6.1-5.74 9.18l-2.77 4.48c-.76 1.22-2.13 2.76-2.35 4.2-.23 1.65-.07 3.59-.02 5.25.06 1.62.32 3.18.73 4.74zM290.05 207.24c.03.42.32.88.4 1.31.1.51.1 1.04.1 1.56.04 1.25.1 2.5.13 3.76 2.54-3.49 3.89-7.63 6.17-11.26.99-1.58 2.08-3.1 2.8-4.81.8-1.89 1.53-3.77 2.45-5.6.5-1 1.02-2 1.51-3 .24-.48.5-.7.24-1.18a1.3 1.3 0 00-.67-.5c-.66-.14-1.04.63-1.56.9-.71.35-1.6.23-2.35.48-1.72.58-3.36 1.65-5.04 2.35-.54.23-.92.31-.88.96.04.57.63.45.02.95-.33.26-.76.14-1.13.1 0 1.23.25 1.98-.35 3.08-.48.87-.28 1.54-.34 2.47a10.4 10.4 0 01-.88 3.15c-.37.92-.93 1.63-.38 2.6.3.52.94.9.56 1.51-.33.54-.87.34-.8 1.17zM282.76 370.2c-1.83-1.08-.1-2.18 0-3.2v3.2zm-2.79-6.18c-.28.01-1.22.11-1.39.4-.07.12.08 1.3.08 1.48 0 .9-.1 1.8-.05 2.7.05.92.51 1.76.55 2.65.04.83-.49 1.27-.73 2.01-.33.98.1 3.67 1.2 3.94.02-.23.06-2.01.22-2.09.52-.25.78 1.1.92 1.47 1.44-1.43 1.87-3.38 2.55-5.3l2.32-6.6c-.95-.09-1.9-.14-2.85-.27-.93-.12-1.88-.44-2.82-.4zM254.75 426.42c-.8.34-.57 1.32-.55 2.18.04 1.17.43 2.12 1.46 2.8.38-1.02 1.75-3.24 1.35-4.3-.32-.85-1.51-1-2.26-.68z" fill="#304FF2"/><path d="M410.89 182.37c.53-.48 1.36-.8 1.46-1.59.1-.78-.65-2.08-.88-2.8l-.58 4.4zM292.69 332.92c-1.39 0 .1-2.88.33-3.54.44.74 1.48 3.55-.33 3.54zm11.53-36.42c.55-.32 1.58-.7 1.88-1.32.34-.72-.37-.7-.99-.75-.73-.05-1.7-.1-2.41.04-.73.14-1.05.31-1.74-.12-.39-.25-.76-.86-1.2-.95-.47-.1-1 .4-1.41.59-1.4.65-2.9.23-4.39.3-.56.02-1.03.16-1.55-.08-.67-.31-.82-.73-1.65-.67-1.32.09-2.34.5-3.7.13-.85-.22-2.02-1.12-2.93-.84-.84.25-1.28 1.58-1.95 2.15-.23-1.16-.35-2.44-1.24-3.31-1-.98-2.6-1.33-3.76-2.13-2.6-1.8-4.49-4.4-6.47-6.83a29.54 29.54 0 00-3 5.78c-.8 2.04-1.58 4.09-2.39 6.12-1.61 4.1-3.34 8.17-5.11 12.2-3.6 8.2-7.64 16.18-11.19 24.41 2.42.06 4.8 1.25 6.88 2.4.54.29.57.4.92.88.17.23.4.78.7.86.19.04.76-.28 1.05-.23.42.06.72.33 1.04.59 2.04 1.6 4.08 3.3 6.01 5.03.89.8 1.5 1.55 2.1 2.58a9.36 9.36 0 002.39 2.67c1.63 1.33 2.58 3.67 3.72 5.45.66 1.03 1.3 2.07 1.8 3.18.45 1 .6 2.2 1.43 3 1.75 1.65 4.48.7 6.6.97.83.11 1.03.35 1.78.01 0-.3.12-.4.33-.31.25.06.48.17.68.33.55.3 1.07.66 1.6.99l.94-2.3c-.35-.01-1.61.14-1.81-.39-.17-.44.53-.56.79-.84.29-.3.46-1.3 1.02-1.27.47.01.44.42.44.82 1 .02.98-.85 1.15-1.6.12-.49.28-.98.4-1.48.1-.33.65-1.7.51-1.99-.35-.71-2.64-.67-1.18-1.54.46-.28 1.55-.19 1.91-.58.29-.32.32-1.6.4-2.04-.68.05-1.5.46-1.91-.15-.6-.87.27-2.2.72-2.94.57.46.93.95 1.59.43.7-.56 1.34-1.6 1.6-2.42-.76-.02-.62.13-1-.46-.23-.34-.3-.92-.4-1.3-.22-.78-.67-1.38.26-1.58.6-.13.74 0 .91.56.23.74.14 2 .23 2.78.92-1.16 1.86-2.4 1.52-3.98-.59.58-.65.43-1.35-.03l-2.1-1.38c.88-.8 2.29-.02 3.16-.68.59-.45.28-1.82.32-2.44.05-.77.4-1.56.34-2.33-.04-.85-1-1.21-.5-1.98.36-.54 1.2-.46 1.35-1.27.16-.81-.66-1.3-1.27-1.65.9-.3 2.64-.61 1.82-1.82-.39-.57-.85-.62-.85-1.43.01-.59.4-1.22.65-1.73.34.77.84 2.59 1.89 2.53.87-.06 1.65-.84 1.4-1.63-.78-2.45-2.99-2.63-5.14-3.09.4-1.48 1.46-1.4 2.53-.64.64.44 1.04.82 1.84.36.85-.48.44-.66.07-1.34-.76-1.4.29-2.2 1.32-3.01.59-.47.88-1.06 1.38-1.57.52-.52 1.36-.63 2-.94-.77-.38-1.48-.78-2.35-.48-.58.2-1 .59-1.67.25-1.47-.75.45-.94.64-1.56.12-.35-.26-1.06-.12-1.56s.46-.94.75-1.38c.6-.94 1.25-1.88.9-3.04.72.83.96 1.01 1.02 2.18.05 1.04.06 2.09.26 3.11.05-1.5 1.44-2.51 1.67-3.97.07-.45-.3-1.56.13-1.8.34-.19 1.03.3 1.39.3-.25-1.38-.3-2.84-.76-4.17-.46-1.3-1.64-1.8-2.64-2.66z" fill="#304FF2"/><path d="M683.86 149.79c-1.84.38-3.61.97-5.46 1.33-2.2.41-4.39.8-6.6 1.12-1.48.21-2.82.55-3.8 1.79-1.81 2.3-3.64 6.3-1.14 8.74 1.17 1.15 3.23.8 4.74 1.27 1.68.53 3.25 1.13 5.01 1.36 8.22 1.06 16.4 3.05 24.44 5.03 3.67.9 7.33 2.15 10.84 3.56 1.8.72 3.55 1.56 5.15 2.64 1.37.93 2.94 1.85 4.05 3.1-4.4.74-9.34.83-13.74.08-2.2-.38-4.42-.27-6.65-.44-2.23-.17-4.46-.33-6.68-.52-2.16-.2-4.31-.43-6.46-.75-.8-.12-1.6-.24-2.4-.13-.47.06-.76.2-1.19.1-.36-.08-.74-.36-1.1-.48-1.64-.55-3.4-.44-5.1-.54-1.29-.08-2.65-.46-3.93-.18-2.26.5-3.28 3.66-3.8 5.6a7.41 7.41 0 00.33 3.95c.45 1.38 1.29 1.36 2.4 1.99 1.6.9 3 1.88 4.72 2.58 1.44.58 2.91 1.1 4.34 1.72 3.14 1.38 6.54 2.57 9.5 4.3 1.6.95 3.12 1.89 4.8 2.7 1.52.74 2.98 1.58 4.36 2.53a33.35 33.35 0 017.37 7.11c-.97 0-1.76.13-2.7-.2-1.13-.4-2.2-1-3.36-1.36-2.2-.7-4.36-1.35-6.54-2.15-2.17-.79-4.4-1.58-6.63-2.23-1.13-.34-2.28-.49-3.44-.74-1.02-.21-1.92-.67-2.89-1.06-4.62-1.85-9.56-2.75-14.34-4.09-4.66-1.3-9.26-2.65-14.01-3.57-2.22-.43-4.44-.83-6.67-1.14-2.18-.3-4.09 0-6.2.56a41.62 41.62 0 00-6.37 2.07c-1.51.67-3.76 1.26-4.95 2.4-.7.7-1.17 1.38-2.07 1.88-.68.39-1.43.66-2.16.92-1.67.6-3.25 1.4-4.9 2.03-1.04.39-2.13.7-3.24.77-1.07.07-1.44.33-2.4.8-1.5.72-3.14 1.07-4.72 1.56-1.57.5-3.36 1.81-5.06 1.21-1.65-.58-2.71-2.7-3.7-4.03-2.6-3.47-4.83-6.92-6.28-11.03-1.53-4.36-2.99-8.74-4.47-13.12-.77-2.28-1.55-4.55-2.34-6.82-.43-1.26-1.34-2.62-.35-3.78 1.15-1.35 1.55-3.48 2.74-5 1.17-1.5 2.5-2.87 3.75-4.32.73-.84 1.44-1.7 2.09-2.6.53-.75.92-1.66 1.51-2.35.54-.62 1.33-1 1.92-1.57.64-.63 1.2-1.38 1.8-2.05 1.53-1.79 3-3.68 4.64-5.37 1.35-1.4 2.9-2.64 4.3-4.01 3-2.98 6.21-5.76 9.34-8.62 3.04-2.78 6.15-5.48 9.12-8.32 2.78-2.68 6.12-4.85 9.24-7.09 3.41-2.45 6.7-5.04 10.37-7.1 3.52-1.99 7.07-2.58 11-3.17-.4.76-.67 1.57-1.18 2.26-.76 1.02-1.76 1.93-2.62 2.86-1.75 1.9-3.5 3.8-5.28 5.69-3.44 3.66-7.05 7.18-10.4 10.95-2.65 3-4.73 6.05-5.83 9.95-.58 2.05-.87 4.26.38 6.14.95 1.45 2.52 1.34 4.1 1.2 4.08-.37 8.12-1.76 12.15-2.48 4.48-.8 9.06-1 13.58-1.48 2.27-.24 4.52-.86 6.79-1.03 1.02-.08 2.03.13 3.05.04 1.02-.08 2.04-.33 3.04-.52 2.11-.39 4.03-.61 6.16-.33 2.13.29 4.15.06 6.27-.11 4.49-.37 9.08.11 13.54.6 4.27.46 8.5.97 12.67 2-4.37 1.1-8.72 2.24-13.11 3.25-4.49 1.04-9.11 1.73-13.51 3.07-1.92.58-3.88.66-5.83 1.07zm-345.57 92.5c.47-1.74.96-3.6 1.57-5.34.14-.4.35-.71.58-1.01a9.6 9.6 0 00-.98 2.29c-.41 1.35-.78 2.7-1.17 4.06zm-.96 1.77zm-.35.86zm1.21-2.3zm267.22-16.21c-1.74 1.11-3.43 1.81-4.86 3.35-3.21 3.46-6.68 6.74-9.77 10.3-1.24 1.44-1.87 3.22-3.26 4.55-1.58 1.51-3.5 2.7-5.3 3.94-3.96 2.78-7.89 5.78-12.08 8.2-.93.55-1.88 1.12-2.86 1.6-.63.33-1.43.5-2 .96-.52.43-.74 1.07-1.32 1.5-.42.3-.94.56-1.38.84a622.18 622.18 0 01-11.1 6.86c-3.63 2.2-7.26 4.42-10.82 6.74-1.9 1.23-3.68 2.62-5.58 3.83-1.55 1-3.16 1.88-4.68 2.91-1.61 1.1-3.11 2.23-4.87 3.1-1.7.83-3.48 1.52-5.18 2.37-1 .5-1.9 1.1-2.85 1.68-.63.37-1.15.32-1.82.55-1.98.68-3.75 1.85-5.76 2.47-8.37 2.6-16.46-1.1-23.76-5.04-3.67-1.98-7.02-4.52-10.54-6.75-1.54-.98-3.47-1.7-4.87-2.84-.71-.58-.99-1.18-1.81-1.64a15.4 15.4 0 01-2.12-1.35 96.5 96.5 0 01-9.44-8.28c-1.62-1.64-3.25-3.29-4.83-4.97-1.25-1.32-2.22-2.92-3.36-4.33-2.76-3.4-5.44-6.85-8.1-10.32-1.3-1.69-2.57-3.39-3.87-5.07-.86-1.13-2.17-2.23-2.46-3.69-.28-1.34.5-2.62 1.15-3.72.97-1.66 1.9-3.31 2.55-5.13.99-2.74 2.48-7.98-.51-9.94-1.1 1.82-2.5 3.45-3.68 5.22-1.2 1.78-1.71 4.04-3.14 5.63-1.51 1.66-3.52 2.87-5.1 4.5-1.57 1.62-3.01 3.36-4.54 5.03-1.6 1.74-3.29 3.4-4.97 5.05-1.58 1.57-3.39 2.82-5.17 4.15a63.39 63.39 0 01-5.78 3.81c-.87.51-1.75 1.14-2.7 1.48-1.01.36-1.9.58-2.87 1.09-3.95 2.04-7.94 4-11.95 5.93-1.08.51-2.22 1.23-3.37 1.52-.45.1-.7 0-1.19.16-.51.17-1.03.46-1.52.67-2.06.91-4.16 1.62-6.3 2.33-4.44 1.49-8.94 2.84-13.33 4.47-4.11 1.52-8.11 3.16-12.35 4.34-4.17 1.16-8.57 1.35-12.87 1.78-1.16.11-2.51 0-3.62.31-1 .3-1.55.5-2.63.42-1.92-.16-3.71.2-5.62.5 2.9-5.7 4.4-12.2 6.5-18.24.56-1.6 1.24-3.1 1.7-4.72.4-1.45 1-2.85 1.73-4.17.88-1.62 1.14-3.49 1.73-5.22-.46 1.36-.7 2.81-1.14 4.18.6-1.15 1.25-2.28 1.83-3.44.6-1.22.59-1.94.6-3.25 1.56.18 1.61-1.42 1.85-2.56l1.13-5.2c.19-.4.12-1.06.22-1.5.12-.51.32-1 .5-1.5 1.35-3.85 2.85-7.64 3.83-11.6 1.09-4.38 2.04-8.8 3.02-13.2.52-2.34 1.21-4.72 1.44-7.11.1-1.14.69-4.83-.93-5.35-1.25-.4-2.6 3.42-2.92 4.26-.8 2.04-1.55 4.1-2.3 6.15-.68 1.84-1.2 3.7-1.96 5.51-.76 1.83-1.02 3.74-1.7 5.6-.4 1.09-1.03 1.89-1.47 2.93-.32.77-.44 1.6-.7 2.38-.54 1.61-1.38 3.2-1.99 4.8-.78 2.07-1.74 4.05-2.6 6.08-.78 1.85-1.23 3.8-1.96 5.66-.7 1.79-1.8 3.38-2.51 5.19-.77 1.98-1.48 3.98-2.24 5.97-1.58 4.09-3.18 8.15-4.41 12.36-.31 1.05-.84 2.09-1.1 3.03-.23.85-.65 1.52-.98 2.37-.6 1.52-.85 3.22-1.16 4.82l.1-.51c-.64.02-1.31.16-1.75-.4-.5-.65-.36-1.9-.46-2.67-.74.1-.45.44-.37 1.1l.13 1.05.3 2.6c.24-.15.74-.95.94-.98.31-.03.65.81.8 1.23l-.2.46c-.2.38-.38.65-.53 1.07-.28.78-.5 1.57-.89 2.3-.2.36-.41.7-.68 1.02-.2.23-.84.61-.95.86-.27.6.14 2.13.1 2.84-.04.92-.2 1.91-.6 2.76-.17.35-.47.56-.63.87-.23.43-.24.65-.29 1.21-.18 1.99-.94 3.85-1.63 5.7-.77 2.09-1.38 4.23-2.08 6.34-.66 1.99-1.51 3.9-2.21 5.88-.82 2.3-1.55 4.64-2.31 6.96-.57 1.74-1.45 3.28-2.06 4.99-.63 1.75-1.52 3.32-1.82 5.13-.34 2.02-1.4 4.03-2.17 5.91-.64 1.58-1.96 3.25-2.22 4.92-.13.8.07 1.52-.19 2.3-.22.69-.65 1.26-.94 1.91-.4.9-.1 1.72-.37 2.63-.24.8-.77 1.36-1.2 2.04-.77 1.2-.51 2.58-1.3 3.83-1.1 1.76-1.5 3.73-2.1 5.74-.28.98-.5 1.99-.76 2.98-.1.4-.16 1.18-.37 1.54-.26.46-.7.28-.93.55-.2.22-.24.96-.33 1.26-.27.93-.66 1.83-1.04 2.72-.81 1.92-1.75 3.79-2.45 5.75l-2.21 6.16c-.35.98-.7 1.96-1.07 2.93-.37.95-.76 1.24-1.38 1.96-.62.72-.87 1.72-1.44 2.47-.54.71-.9 1.24-1.14 2.12-.44 1.66-.77 3.33-1.46 4.92-1.76 4.01-3.94 7.83-5.7 11.85-1.85 4.21-3.6 8.47-5.2 12.78-1.5 4.05-2.45 8.24-3.99 12.28-1.51 3.99-2.82 8.04-4.31 12.05-1.55 4.16-3.11 8.3-4.5 12.52-.5 1.52-.84 3.04-1.17 4.57.1-.7.2-1.37.32-2-1.48 2.47-2.84 5.17-2.2 8.13.41-.57.72-1.21.96-1.9-.09.35-.2.7-.34 1-.41.89-.8 1.56-1.09 2.54-.62 2.16-1.25 4.31-1.86 6.48-.3 1.04-.58 2.1-.92 3.12-.31.92-.98 1.7-1.26 2.6-.32 1-.21 2.22-.46 3.26-.21.91-.53 1.8-1 2.62-.36.63-.88 1.18-1.17 1.86-.35.82-.14 1.64-.23 2.51-.12 1.08-.5 2.1-.66 3.18-.14 1.04.34 1.68.53 2.67.2 1.03-.2 1.71-.5 2.66-.27.8-.42 1.66-.61 2.48-.08.35-.14 1.45-.39 1.69-.18.17-1.23.2-1.5.24-.98.17-1.96.36-2.97.36-2.1 0-4.27-.3-6.36-.53a62.46 62.46 0 01-12.58-2.44 71.71 71.71 0 01-11.32-4.97c-3.61-1.92-6.81-4.55-9.83-7.29-1.64-1.48-3.2-3.05-4.76-4.62l-2.25-2.25c-.6-.6-1.4-1.16-1.45-2.08-.07-1.03.67-2.22 1.04-3.15l.96-2.5 2.3-6.15 4.72-12.74c1.59-4.27 3.22-8.45 5.14-12.58 1.83-3.95 3.5-7.94 5.03-12.03 1.44-3.85 3.16-7.57 4.8-11.35a67.1 67.1 0 002.38-6.18c.56-1.77.98-3.43 1.83-5.09.55-1.06 1-2.1 1.34-3.26.29-1 .45-1.85 1.1-2.66 1.36-1.7 2.12-3.63 2.82-5.69 1.37-4 2.96-8.04 4.87-11.82 1.94-3.82 4.08-7.5 5.85-11.4 1.78-3.94 4.2-7.48 5.86-11.47 3.44-8.24 8.17-15.83 11.65-24.05 3.42-8.1 7.5-15.88 11-23.95 1.83-4.2 3.6-8.45 5.26-12.73.8-2.05 1.58-4.1 2.4-6.12.75-1.84 2.03-3.24 2.56-5.14.54-1.94 1.4-3.43 2.33-5.18.94-1.8 1.44-3.97 2.18-5.87 1.64-4.15 3.35-8.27 5.1-12.37 1.8-4.22 3.73-8.38 5.6-12.57.7-1.58 1.1-3.28 1.82-4.86.37-.78 1.1-1.44 1.42-2.2.15-.34.12-.82.24-1.2.17-.5.48-1 .71-1.46 1.88-3.84 3.96-7.53 5.67-11.45 1.74-4 3.53-8.01 5.07-12.1 1.52-4.05 3.44-7.86 4.74-12a84.7 84.7 0 001.72-5.95c.42-1.75 1.2-4.34.8-6.14-.24-1.1-1.53-3.36-2.83-2.34-1.2.94-1.93 2.8-2.58 4.12-.99 2-2.04 3.96-2.88 6.02-.67 1.64-1.28 3.22-2.21 4.74-2.25 3.66-4.04 7.49-6.07 11.27-.45.86-1 1.57-1.62 2.3-.6.72-.43 1.06-.68 1.96-.44 1.62-1.78 2.93-2.47 4.46-.9 2.03-1.69 3.95-2.82 5.88a58.14 58.14 0 00-2.7 5.1c-1.84 4-3.61 8.04-5.4 12.06-.95 2.14-1.87 4.3-2.91 6.38-.46.92-.9 1.86-1.4 2.75-.33.59-.91 1.06-1.18 1.66-.31.67.03 1.24-.24 1.9-.3.76-.64 1.07-1.3.63-1.49-1-1.79-3.13-2.58-4.64-1.88-3.59-3.68-6.96-4.38-11.02-.39-2.25-.23-4.53-.22-6.8.01-2.02 1.21-3.39 2.26-5.05 2.47-3.91 4.94-7.83 7.46-11.71 1.1-1.71 2.07-3.5 3.2-5.2 1.1-1.63 2.55-2.84 3.75-4.35.67-.84 1.16-1.77 1.87-2.58a18 18 0 001.67-2.17c.94-1.46 1.58-3.05 2.6-4.47 2.43-3.35 4.9-6.68 7.46-9.94 1.36-1.73 2.97-2.8 4.65-4.19 1.65-1.35 3.13-2.9 4.65-4.4 2.93-2.88 5.7-5.88 8.95-8.39 3.34-2.56 6.79-5 10.32-7.3 1.74-1.12 3.9-1.97 5.3-3.49a8.55 8.55 0 011.92-1.65c.7-.42 1.53-.54 2.22-.92 1.96-1.09 3.76-2.88 5.54-4.24l5.31-4.07c.75-.57 2.15-1.25 2.7-1.98.3-.41.27-.99.61-1.42.78-.99 2.33-1.08 3.43-1.5a37.6 37.6 0 016.47-1.67c1.95-.38 3.8-1.22 5.68-1.87 4.1-1.44 8.34-2.3 12.66-2.7-1.94 5.74-4.15 11.38-5.63 17.26-.6 2.38-.7 5.16-1.7 7.4-.37.8-1.33 1.58-.85 2.49a6.45 6.45 0 002 1.83c1.33.86 2.98-.1 4.28-.62 2.2-.88 4.35-2.02 6.7-2.42 2.46-.42 4.52-2.74 7.07-2.7 1.06.01 1.93.52 2.73 1.18.82.68 1.75 1.23 2.54 1.95a20.11 20.11 0 006 3.81c.77.3 1.42.15 2.13.74.53.43.95 1.06 1.67 1.23-3.37 3.59-6.63 7.15-9.48 11.18a22.98 22.98 0 00-3.2 6.2c-.36 1.09-.7 1.92 0 2.97.38.58 1 1.06 1.71.95 1.73-.27 3.27-2.6 4.23-3.89 1.12-1.48 2.34-2.86 3.5-4.3 2.4-3.02 4.55-6.18 7.55-8.65.9-.74 1.8-1.58 2.78-2.18.8-.49 1.35-.12 2.23-.27 2.19-.39 4.15-1.53 6.11-2.52 2.12-1.08 4.24-2.15 6.38-3.19 1.11-.54 2.76-1.7 4.07-1.14 1.47.61 2.3 2.91 3.1 4.14.78 1.18 1.47 2.2 2.74 2.88 2.08 1.1 6.12 2.44 7.95.32 2.58-3 2.31-7.93 2.1-11.62-.14-2.26-.42-4.53-.25-6.8.15-2 .39-3.98.58-5.97 3.67 3 7.14 6.06 10.18 9.72 1.61 1.94 3.29 3.83 4.96 5.73.83.96 1.58 1.79 2.15 2.91.5.97 1.2 1.8 1.93 2.6 1.52 1.65 2.57 3.84 3.73 5.77 1.13 1.87 2.24 3.74 3.33 5.63a95.23 95.23 0 015.77 11.26c.85 2.05 2 3.9 2.87 5.94.85 2.02 1.7 4.05 2.53 6.09.48 1.17 1.05 2.36 1.42 3.57.26.84.03 1.9.34 2.69.3.75 1 1.4 1.32 2.22.32.81.5 1.67.83 2.49 1.6 4 3.77 7.8 5.55 11.71 1.85 4.06 3.7 8.13 5.9 12.01 2.25 3.94 5.07 7.55 7.78 11.18 1.42 1.9 2.88 3.76 4.24 5.7.49.7.92 1.5 1.58 2.07.61.53 1.4.74 2.11 1.1.4-1.06.94-1.75.77-2.92-.14-1-.51-1.97-.82-2.92-.6-1.84-2.16-3.48-1.77-5.52.37-1.9 1.92-3.4 3.1-4.84 1.56-1.9 3.12-3.8 4.69-5.68 5.26-6.35 10.84-12.43 16.3-18.62 2.77-3.16 5.49-6.37 8.35-9.44 1.29-1.37 2.78-2.5 4.15-3.78 1.13-1.04 1.87-2.37 2.92-3.47.79-.8 1.72-1.4 2.52-2.22l1.95-2a655.8 655.8 0 004.27-4.4c2.83-2.95 5.48-6.06 8.27-9.05 5.39-5.77 11.1-11.32 16.72-16.85 1.62 4.8 2.96 9.8 4.13 14.73.28 1.2.4 2.47.83 3.64.43 1.15.98 2.25 1.42 3.39 1 2.53 1.75 5.24 2.98 7.65 2.34 4.59 4.4 9.9 7.76 13.85 1.68 1.97 3.97 3.65 5.92 5.33l6.31 5.46c-1.89 1.43-3.77 2.86-5.77 4.13zm-174.14 30.46c-.17-.4-.34-.62-.54-.77.15.1.28.23.45.55.36.7.58 1.5.84 2.24-.24-.68-.47-1.36-.75-2.02zm-50.82 36.36c1.45 1.62 2.99 3.17 4.46 4.78 1.36 1.49 2.45 3.12 3.66 4.71 2.63 3.44 5.38 6.78 8.22 10.03 2.75 3.14 5.7 6.1 8.33 9.34 2.61 3.24 4.6 6.72 6.55 10.37.91 1.7 1.94 3.33 3.17 4.8.58.7 1.35 1.3 1.71 2.13.4.93.52 2.04.75 3.01 2.04 8.72 4.13 17.42 6.1 26.15.95 4.23 1.59 8.52 2.5 12.75.94 4.3 2.34 8.46 3.22 12.76 1.79 8.71 3 17.54 4.93 26.23 1.87 8.46 5.11 16.5 6.88 24.99.25 1.2.6 2.28.33 3.49-.23 1-.41 1.88-.43 2.92-.03 1.79-.2 3.2-1.24 4.72a20.42 20.42 0 01-8.2 7.14c-1.77.8-3.46 1.89-5.38 2.34-.92.22-1.81.07-2.73.2-.92.15-1.69.8-2.54 1.14-3.41 1.4-7.76.98-11.38.98-4 0-8-.26-11.68-1.93-.3-.13-.6-.28-.9-.43-.5-.08-.58-.3-.26-.67 0-.4.23-.87.25-1.3.04-.9-.23-1.77-.46-2.64-.54-2.06-1.05-4.13-1.52-6.2-1.95-8.6-2.88-17.35-4.08-26.08-.61-4.5-1.51-8.96-2.3-13.44-.74-4.3-1.18-8.61-1.74-12.94-.56-4.3-1.16-8.6-1.74-12.9-.32-2.37-1-4.68-1.3-7.03-.23-1.77.24-3.45-.16-5.23-.95-4.2-.99-8.55-2.06-12.72-1.1-4.29-2.7-8.51-4.17-12.69l-2.3-6.48c-.45-1.28-.97-2.65-2.29-3.27-.73-.33-1.45-.3-2.1-.8-.8-.62-1.5-1.47-2.22-2.2l-4.62-4.65c-6.01-6.01-11.84-12.32-18.49-17.65-3.09-2.47-5.95-5.26-9.37-7.28-3.66-2.16-7.28-4.4-10.94-6.56a40.61 40.61 0 00-5.62-2.76c-1.72-.69-.67-2.33-.17-3.67.77-2.06 1.44-4.15 2.08-6.25.48-1.6.75-3.65 2.38-4.51 1.06-.57 1.53.1 2.55.41.72.23 1.48.26 2.23.23 1.7-.08 3.67-.84 5.35-.57 1.12.17 1.68.22 2.82.01 1.01-.18 2.08-.19 3.1-.26 1.9-.14 3.85-.17 5.72-.5 4.1-.72 8.25-1.66 12.17-3.04 4.21-1.47 8.22-3.52 12.25-5.4.27 1.86.54 3.74 1.23 5.5.54 1.4 1.45 3.29 2.8 4.03 2.93 1.64 4.47 4.45 6.65 6.89zm61.49 176.84c1.27-.69 1.52.29 2.28 1.33 2.07 2.86 4.15 5.71 6.24 8.56l6.11 8.31c1.91 2.6 4.02 5.08 5.77 7.78a69.54 69.54 0 014.62 8.83c1.17 2.55 2.88 5.2 1.65 8.05-1.15 2.65-4.41 3.76-6.78 5.02-3 1.58-5.36 2.7-8.76 1.5a167.94 167.94 0 01-18.89-8.36c-5.6-2.82-9.84-6.98-14.48-11.07-2.44-2.15-4.97-4.12-7.25-6.45-2.37-2.42-4.63-4.95-7.02-7.35-3.72-3.74-7.61-7.05-6.97-12.85 3.55 1.2 7.03 2.68 10.72 3.4a48.9 48.9 0 0011.79 1c1.7-.1 3.26-.56 4.93-.89 1.62-.32 3.27.02 4.8-.78 1.35-.7 2.18-1.54 3.73-1.91 1.57-.37 2.9-.89 4.23-1.81 1.1-.76 2.1-1.67 3.28-2.3zM330.05 316.35l.1.04a.61.61 0 00-.1-.04zm-4.13-2.33l.12.08-.12-.08zm-76 204.62c1.69 2.99 3.33 6 4.91 9.04.79 1.52 1.54 3.05 2.29 4.58.69 1.42 1.3 2.51 1.38 4.08-3.31-.37-6.68-2.34-9.49-4.07-2.96-1.83-5.47-4.09-7.98-6.47a130.53 130.53 0 00-7.57-6.74 31.6 31.6 0 00-3.82-2.62 5.3 5.3 0 01-1.15-.84c-.41-.42-.56-1.16-1.05-1.48-1.01-.66-2.59.32-3.5.76-1.2.59-2.34 1.29-3.35 2.17-1.15 1.01-1.92 2.3-2.91 3.46-.93 1.09-1.87 2.12-2.7 3.28-1.9 2.62-3.96 5.4-6.37 7.58-1.1.99-2.49 1.77-3.43 2.89a22.63 22.63 0 01-2.94 2.9 55.65 55.65 0 00-6.52 6.26c-2.26 2.56-4.84 4.85-7.28 7.24-.37-1.51.3-2.78.96-4.08.78-1.52 1.33-3.16 1.97-4.73 1.41-3.44 2.98-6.79 4.72-10.07 1.63-3.05 3.29-6.08 4.86-9.15 1.3-2.55 3.32-5.7 2.7-8.69-.25-1.16-.88-2.92-2.14-3.3-1.25-.4-2.5.7-3.52 1.3a73.09 73.09 0 01-9.18 4.45c-3.16 1.32-6.35 2.6-9.39 4.18-2.95 1.53-5.73 3.36-8.68 4.88-1.46.76-3 1.32-4.45 2.1-1.39.76-2.73 1.6-4.11 2.37a24.97 24.97 0 01-8.69 3.04c2.22-2.86 5.13-4.95 7.95-7.15 3.3-2.56 6.57-5.15 9.97-7.57 3.06-2.17 6.17-4.27 9.16-6.54a92.7 92.7 0 004.12-3.27c1.12-.96 2.33-1.92 2.6-3.45a3.93 3.93 0 00-1.57-3.79c-1.17-.8-2.66-.61-3.97-.43-3.7.53-7.3 1.66-10.88 2.7-.82.24-1.67.63-2.5.82-.82.2-1.8.12-2.65.16-1.6.08-3.2.16-4.78.37-1.66.2-3.35.15-5 .41-1.5.24-2.54 1.05-4.08 1.02-6.8-.17-13.13 3.62-19.87 3.62 4.02-2.36 8.05-4.7 12.09-7.02 1.85-1.07 3.78-2.01 5.56-3.18 1.98-1.3 3.8-2.77 5.85-3.98 7.31-4.33 15.45-7.49 22.12-12.82 1.62-1.3 3.16-2.69 4.72-4.05.35-.3.82-.88 1.24-1.07.67-.32.45-.4 1.04.2.65.66 1.1 1.47 1.63 2.22a34.62 34.62 0 007.68 7.76c3.42 2.51 7.37 4.04 11.2 5.81 3.87 1.78 7.69 3.68 11.74 5.02a64.36 64.36 0 0012.67 2.56c4.52.53 8.73.23 13.2-.33.27 3.37.61 6.22 2.2 9.27 1.5 2.89 3.4 5.56 5 8.39zm16.98-256.71c.33.07.75.1 1.07.21-.28-.07-.62-.07-.83-.13l-.24-.08zm1.21 1.94c.13-.32.32-.68.36-1-.02.32-.2.68-.36 1zm-38.57 57.02c-5.03 3-9.53 6.75-14.4 9.98a75.7 75.7 0 01-11.39 6.17c-1.13.45-2.22 1.18-3.38 1.52-1.26.38-2.56.15-3.83 0-1.11-.13-2.19-.06-3.1-.8-1.65-1.31-2.72-3.96-3.7-5.76-1.4-2.58-3.04-5.26-4.04-8.02-.93-2.57-2.16-4.92-2.65-7.61.86-1.43.78-2.93.06-4.39-.33-.67-.76-1.29-1.16-1.92-.44-.72-.42-.89-1.22-.9l2.3 7.17c-.76-2.35-1.78-4.76-2.3-7.17-.46-2.1-.64-4.15-1.39-6.2-.38-1.04-.99-2.02-1.29-3.1-.24-.87-.24-1.8-.36-2.7-.32-2.5-.97-5-1.36-7.5-.76-4.77-1.24-9.6-2.16-14.35-.94-4.89-2.15-9.75-3.22-14.6-.4-1.86-1.13-3.45.68-4.72 1.74-1.21 3.66-2.22 5.5-3.27 1.74-1 3.47-2.01 5.32-2.8 1.57-.65 3.08-1.28 4.5-2.22.9-.58 1.8-.58 2.81-.9 1.04-.34 2.06-.72 3.09-1.09l5.65-2c1.03-.37 3.14-1.72 4.1-.7.5.53.56 1.63.7 2.3.24 1.08.45 2.17.67 3.26.82 4.23 1.62 8.47 2.27 12.72.65 4.18 1.01 8.4 1.66 12.57.16 1.02.68 2.28.58 3.31-.08.76-.6 1.16-1.12 1.66a49.4 49.4 0 00-3.73 3.95c-1.3 1.54-2.54 3.13-3.94 4.57a21.66 21.66 0 00-3.54 4.39c-.82 1.44-1.93 2.8-1.55 4.52.3 1.34.7 2.67 2.29 2.12 1.84-.64 3.43-2.44 4.87-3.7 1.41-1.23 2.81-2.48 4.25-3.68 1.6-1.33 3.37-2.44 4.91-3.83 1.34-1.2 2.48-2.6 3.75-3.86 3.04-3.04 6.31-5.77 9.55-8.6 1.5-1.3 2.68-2.9 4.03-4.33 1.34-1.42 2.78-2.72 4.18-4.07 3.04-2.93 6.2-5.87 9.03-9 1.35-1.5 2.8-2.9 4.17-4.39.56-.61.98-1.42 1.52-2 .51-.57 1.31-.94 1.9-1.47 2.53-2.31 3.94-5.54 6.45-7.9.66 1.46 1.13 2.95 1.62 4.47.45 1.4.79 3.05 1.58 4.3.37.6 1 1.02 1.31 1.63.3.58.23 1.28.44 1.9.41 1.17 1.26 2.42 1.9 3.5a19.98 19.98 0 003.42 4.01l-.34-.18a7.6 7.6 0 002.67 2.72l-.1.21c-.64 1.38-1.35 2.65-1.85 4.08-.86 2.48-2.13 4.8-2.94 7.3-.44 1.35-.61 2.74-1.25 4-.56 1.13-1.3 2.16-1.84 3.28-1.28 2.64-2.12 5.54-3.13 8.29a101.63 101.63 0 01-3.53 8.32 170.01 170.01 0 00-3.61 8.25c-.51 1.25-.92 2.65-1.72 3.76-.88 1.19-2.13 1.5-3.46 1.97-5.24 1.88-10.35 4.7-15.13 7.53zm-62.86-80.57c-2.97-2.5-7.12-1.8-10.77-1.82-4.23-.01-8.45.82-12.67 1.1-4.22.29-8.46.49-12.7.4a61.32 61.32 0 01-11.23-1.2 46.2 46.2 0 00-5.48-.73c-1.16-.1-2.24-.45-2.82-1.54-.78-1.44-.58-3.63-.63-5.22-.05-1.55-.28-3.53.34-4.99.61-1.44 1.97-2.15 3.35-2.68l5.1-1.95c6.89-2.64 13.97-5.66 21.38-6.29 2.06-.18 4.13-.2 6.2-.26 1.77-.05 3.4-.48 5.16-.66 3.66-.38 7.24-.47 10.85-1.23.99-.21 1.61.31 2.62.47.79.13 1.59.1 2.38.05 1.63-.12 3.19-.32 4.83-.18 1.92.17 3.86.27 5.77.56 1.71.27 3.38.74 5.1.93 1.88.21 3.77.3 5.61.7.93.22 2.35.42 2.9 1.31.72 1.19.18 3.46.1 4.76-.1 1.84-.2 3.69-.19 5.53.02 2 .32 3.94.71 5.9.28 1.41.88 3.07.56 4.53-.18.8-.76 1.18-1.6 1.05-.57-.1-1.04-.65-1.57-.72-1.04-.13-.03.64-.62 1.3-.48.53-1.26.38-1.9.56-.67.18-1.3.52-1.94.8-1.45.64-2.96 1.08-4.39 1.78-3.18 1.57-6.2 3.43-9.23 5.27-.5-1.5-.87-3.79-1.89-5.03-.87-1.08-2.29-1.61-3.33-2.5zm208.4-95.31c.68-1.93 1.58-3.8 2.15-5.76.2-.7.2-1.7.92-2.1.6-.32 1.67-.12 2.3-.11h3.47c.57-.01 1.41-.14 1.75.46.35.63-.2 1.78-.22 2.47-.02 1.06.23 2.1.5 3.11 1.15 4.33 2.33 8.6 3.65 12.89-1.31-.6-2.33-2-3.83-2.15-.94-.1-1.67.46-2.54.6-.75.13-1.49.17-2.23.34-3.33.78-6.35 2.5-9.73 3.11.15-1.24.2-2.37.58-3.57.33-1.04.7-2.07 1.06-3.1.7-2.07 1.44-4.13 2.17-6.2zm10.98-29.03c1.6-.7 3.2-2.76 1.7-4.45-.8-.92-2.85-.44-3.9-.22-1.49.3-7.17 4.01-7.87 1.5-.46-1.66.36-4.16 1.11-5.61a9.25 9.25 0 011.88-2.53c.83-.76 1.16-.53 2.17-.42 1.67.2 3.22-.32 4.32 1.3.2.32.25.75.7.81.34.05.55-.37.9-.38.56 0 .62.4.84.83.57 1.14 1.42 3.38 3.12 2.44 1.73-.94 1.83-3.99 1.83-5.63 0-2.55.18-5.1.32-7.64.1-2.02.28-3.86 1.75-5.38 1.39-1.43 2.46-3.42 4.15-4.52 1.9-1.24 4.37-1.1 6.55-1.26 2.52-.2 5.1-.48 7.62-.22 2.58.27 5.03.39 7.62.27 2.54-.11 5.07-.27 7.6-.33 2.42-.07 4.93.14 7.32-.12.97-.1 2.26-.46 2.9.5.73 1.1.67 3.07.88 4.33-2.63-.48-6.9-1.7-7.91 2.01-.3 1.12.64 2.12 1.46 2.77 1.21.96 2.9.93 4.37 1.14.82.11 2.14.09 2.62.91.46.79.22 2.26.27 3.13.22 3.6.74 7.19 1.11 10.78.36 3.43.63 6.95.11 10.39-.26 1.75-.98 3.4-1.11 5.18-.08 1.1.1 2.34-.91 3.07-1.16.84-3.16.84-4.53 1.15-1.8.4-3.58.87-5.36 1.38-2.8.81-6.23 1.22-7.25 4.36-1.08 3.35-1.87 6.81-2.92 10.18-.53 1.7-1.27 3.26-2.02 4.88-.3.62-.75 1.35-.69 2.07.06.76.6 1.5.89 2.17.64-.33 1.3-.51 1.86-1 .57-.52 1.02-1.24 1.48-1.86.96-1.27 1.64-2.37 3.01-3.2.05.68.21 1.25-.11 1.83-.23.4-.76.82-1.06 1.2-.84 1.05-1.65 2.14-2.57 3.14-1.82 1.98-4.02 3.62-5.92 5.55-1.9 1.93-3.7 4.2-6.01 5.65-2.23 1.4-4.62 2.55-6.94 3.78 2.04-4.63.63-9.3-1.8-13.47-1.13-1.94-2.5-3.72-3.77-5.56-1.01-1.47-2.96-3.43-2.91-5.3.02-1 .7-1.87 1.2-2.7.54-.9.96-1.88 1.41-2.85.9-1.96 2.09-4.03 2.4-6.18.28-1.88-.14-4.5-1.42-6-.51-.61-1.26-.56-1.93-.97-.65-.4-1.15-1-1.68-1.55-.61-.6-1.36-1.03-1.97-1.64-.64-.64-1.1-1.45-1.56-2.23-1.1-1.83-2.24-3.65-3.35-5.48zm7.01-40.75c1.92.03 2.94 1.12 3.83 2.66-.6.94-2.2 3.77-3.52 2.64-.25-.2-.36-.66-.66-.9-.28-.23-.63-.35-.95-.5-.73-.32-1.56-.63-2.03-1.34-1.1-1.65 2.18-2.58 3.33-2.56zm37.49 71.91c.34-.1 1.4.6 1.75.75.62.28 1.4.55 1.94.97.55.41.76 1.03 1.13 1.6.12 4.17.38 8.37.35 12.56l-.35-12.57c-.24 1.15-.67 2.2-.66 3.4 0 1.2.18 2.44.3 3.63.2 2.28.46 4.55.7 6.83a61.9 61.9 0 01-.21 3.92c-1.67-2.31-3.3-4.66-4.97-6.97-1.5-2.07-3.44-2.19-5.8-2.38l4.63-9.33c.17-.36.88-2.33 1.19-2.41zm272.07 7.07c2.48-.68 5.02-1.64 7.58-1.98 2.43-.32 4.58-1.37 6.92-2.06 2.07-.6 4.15-1.12 6.19-1.82 1.54-.54 3.2-1.07 4.42-2.21a5.65 5.65 0 001.7-4.75c-.27-2-1.75-2.25-3.44-2.83-8.62-2.93-17.34-4.68-26.33-5.84-4.63-.6-9.31-1.34-14-1.25-2.41.06-4.81.19-7.23.03-2.2-.14-4.43.68-6.59.26-2.2-.44-4.26.15-6.48.45-2.36.32-4.75.41-7.13.52-2.16.1-4.46.02-6.57.58-2.05.56-3.65.95-5.75.27 2.2-2.43 4.39-4.87 6.6-7.29 4.51-4.97 9.21-10.3 11.95-16.52 1.17-2.67 1.74-6.5-.22-8.98-1.74-2.2-5.54-1.75-7.96-1.4-3.12.47-6.1 1.58-8.78 3.22-2.58 1.59-5.44 2.88-7.8 4.8-2.3 1.87-4.97 3.11-7.3 4.95-2.41 1.9-4.84 3.74-7.28 5.6-5.26 4-9.64 9.1-14.62 13.44a92.35 92.35 0 00-7.49 7.37c-1.12 1.23-2.28 2.44-3.24 3.8-.8 1.14-1.5 2.35-2.35 3.46-1.01 1.33-2.29 2.44-3.36 3.73a51.46 51.46 0 00-2.75 3.7c-.92 1.33-1.8 2.7-2.7 4.03-.49.7-.94 1.9-1.9 1.78-1.36-.18-2.1-1.34-3.58-.54-.5.27-.81.73-1.23 1.1-.58.51-1.24.73-1.92 1.07-1.38.7-2.55 1.72-3.8 2.63-1.3.96-2.65 1.76-3.87 2.85-5.11 4.62-9.83 9.57-14.74 14.38-1.19 1.16-2.44 2.27-3.59 3.46-.92.96-1.64 2.09-2.56 3.03-.53.54-1.18.76-1.74 1.23-.53.44-.97 1.13-1.41 1.65-1.08 1.24-2.15 2.49-3.26 3.7-2.17 2.38-4.57 4.45-6.66 6.92-2.13 2.52-4.53 4.83-6.71 7.32-4.59 5.25-8.9 10.6-13.11 16.15-2.1 2.75-4.45 5.3-6.44 8.12a60.04 60.04 0 00-4.93 8.5c-.4.84-.93 3.32-2.41 2.44-.53-.31-.9-1.24-1.22-1.75l-1.33-2.1c-1.92-3.03-3.98-6.08-5.5-9.35-2.93-6.29-5.84-12.53-8.24-19.04-1.22-3.3-2.6-6.51-4-9.74-1.36-3.2-2.4-6.52-3.74-9.73-2.67-6.38-6.16-12.43-9.65-18.4-3.19-5.46-6.6-11.1-11.04-15.65-2.35-2.41-4.2-5.17-6.68-7.48-1.25-1.17-2.55-2.3-3.8-3.47-.91-.84-1.69-2.1-2.8-2.67-.8-.4-1.65-.31-2.5-.28-.67.03-1.4-.17-2.05-.11-.57.05-.8.56-1.36.67-.58.11-.95-.15-1.4-.46-2.83-1.96-6.7-2.8-9.94-3.97 2.05-1.27 4.56-1.31 6.84-1.85a14.1 14.1 0 005.33-2.45c3.5-2.64 4.08-6.8 4.71-10.9.73-4.69 1.3-9.69.67-14.42-.61-4.63-1.26-9.28-1.95-13.9a44.75 44.75 0 00-1.44-6.62c-.54-1.78-1.24-3.6-1.18-5.49.03-.92.06-2.36.76-3.03.52-.5 1.28-.76 1.83-1.24a13.96 13.96 0 003.13-4.05c.65-1.24 1.7-3.06 1.07-4.5-.67-1.56-2.81-1.84-4.25-2.22-4.26-1.1-8.55-.92-12.88-1.53-2.08-.3-4.25-.9-6.33-.87-2.06.02-4.11.05-6.17.03-4.48-.05-8.98-.19-13.45.28a76.2 76.2 0 01-3.54.28c-.96.06-1.65.54-2.53.7-.53.09-1.3-.2-1.83-.24-.91-.07-1.84-.04-2.74.13-1.9.35-3.37 1.56-5.25 1.94a4.8 4.8 0 00-3.34 2.4c-1.9 3.29-2 7.83-2.17 11.52-.2 4.36.13 8.75-.1 13.1-.06 1.07-.17 1.5-1.28 1.38-1.57-.15-2.94-.57-4.52-.16-3.02.8-4.9 3.54-6.08 6.26a19.95 19.95 0 00-1.7 9.15c.2 2.73 1.2 6.27 4.2 7.05 1.62.43 3.24-.24 4.77-.72 1.43-.45 2.74-1.75 3.52.06 1.57 3.68 3.16 7 5.68 10.16-2.36-.16-4.72-.39-7.09-.5-1.56-.09-3.76-.52-5.25.09-.87.35-.9.97-1.53 1.51-.7.6-2.03.35-2.88.32-2.55-.08-4.9-.54-7.48-.28-1.9.2-3.61 1.14-5.5 1.5-2.3.44-4.58 1.35-6.75 2.2-2.04.82-4.04 1.7-6.13 2.35a52.87 52.87 0 00-6.33 2.3c-3.63 1.66-6.71 4.36-9.96 6.65-.86.6-1.8 1.12-2.59 1.8-.65.56-1.09 1.3-1.72 1.87-1 .92-2.18.88-3.28 1.36-1.12.5-2.2 1.5-3.21 2.2l-2.76 1.88c-1.74 1.2-3.47 2.6-5.36 3.56-3.5 1.77-6.25 4.57-9.1 7.24-3.07 2.88-6.46 5.39-9.42 8.38a70.21 70.21 0 00-8.03 9.62c-2.47 3.61-4.56 7.44-6.9 11.13-1.08 1.68-2.44 3.05-3.69 4.6-.63.77-1.21 1.58-1.75 2.42-.48.74-.82 1.7-1.53 2.24-1.43 1.09-2.85 1.73-4 3.18-1.28 1.63-2.4 3.44-3.48 5.2a190.16 190.16 0 00-6.18 10.9c-.58 1.08-.57 1.88-.67 3.07-.07.92-.38 1.8-.55 2.7-.28 1.48-.1 3.03-.49 4.5-.25.95-.86 1.08-1.64 1.62-.73.5-1.4 1.1-2.04 1.72-1.3 1.26-2.57 2.5-4 3.61-1.45 1.14-2.96 2.24-4.22 3.6-1.31 1.4-2.47 2.76-3.97 3.99-3.2 2.6-6.23 5.47-9.38 8.16-3.27 2.78-6.25 5.84-9.25 8.9-3.11 3.16-6.4 6.12-9.65 9.14-.25-3.58-.46-7.17-.76-10.75-.32-3.86-1.19-7.63-1.96-11.42-.69-3.39-1.14-7.01-2.3-10.28-.78-2.24-2.32-4.08-4.71-4.63-1.2-.27-3 .3-3.58-1.04-.57-1.32-.63-3.33-.86-4.76-1.03-6.27 1-13.27-1.61-19.27-1.14-2.6-3.25-3.99-5.77-5.1-3.3-1.46-6.93-1.1-10.43-1.83-1.6-.33-2.89-1.2-4.54-1.27a60.32 60.32 0 00-5.02.04c-1.74.07-3.42-.28-5.15-.28-1.51 0-2.7 1.01-4.18.78-1.66-.27-3.01-.68-4.69-.2-1.48.43-2.9.56-4.44.6-1.9.06-3.8-.12-5.7-.03-1.75.08-3.42.61-5.15.83-3.66.44-7.18.86-10.75 1.84-3.54.98-6.9 2.38-10.33 3.66-5.5 2.04-11.82 3.6-13.33 10.08-.84 3.6-1 7.47-.56 11.13.37 2.96 1.04 6.24 2.78 8.73 1.86 2.67 4.95 3.48 7.91 4.4 3.39 1.05 6.86 1.2 10.33 1.84 3.6.65 7.2 1.17 10.86 1.07 3.64-.1 7.2-1.05 10.83-1.35 3.73-.32 7.45-.76 11.18-1.08 2.5-.22 7.3-.93 8.56 1.91.4.9.96 1.98.24 2.78a37 37 0 00-2.42 3 10.74 10.74 0 00-2.17 4.62 33.01 33.01 0 00-.38 5.3c-.1 7.3 1.78 14.72 3.56 21.79a226.03 226.03 0 006.5 21.81c2.47 6.8 4.3 13.88 7.22 20.5a60.42 60.42 0 005.4 9.29c1.7 2.52 3.26 5.58 5.76 7.42 2.1 1.54 4.78 2.3 7.37 2.09 3.11-.25 6.06-2.14 8.79-3.52 6.55-3.31 12.6-7.8 18.5-12.2 2.81-2.1 5.37-4.52 8.38-6.38 2.94-1.82 5.9-3.45 9.2-4.4-2.75 5.8-5.26 11.7-8.19 17.43-2.89 5.66-5.28 11.52-7.89 17.3-1.07 2.38-2.64 4.44-3.7 6.81l-3.62 8.15c-2.2 4.97-4.54 9.91-6.53 14.96-.45 1.15-.25 2.54-.83 3.54-.6 1.02-1.24 1.9-1.69 3.01-.96 2.37-1.73 4.77-2.83 7.1-2.43 5.14-3.98 10.68-6.3 15.88a355.84 355.84 0 00-6.53 15.8c-1.02 2.61-2.17 5.17-3.12 7.8-.88 2.44-1.7 4.92-3.14 7.1-3.14 4.77-5.58 9.92-7.95 15.13-1.12 2.46-2.1 4.9-2.28 7.63-.15 2.45 1.38 4.45 2.6 6.42-2.23 1.14-4.3 2.6-6.54 3.75-2.41 1.22-4.93 2.18-7.43 3.19a802.83 802.83 0 00-7.59 3.08c-2.23.92-4.28 2.05-6.44 3.1-2.04 1-3.9 2.3-5.83 3.49-2.1 1.28-4.21 2.5-6.3 3.79-4.1 2.5-8.08 5.02-12.38 7.18l-6.74 3.34c-1.85.93-3.87 1.74-5.22 3.37-1.99 2.4-1.81 6.28.08 8.73 1.24 1.62 4.3 1.47 6.17 1.53 1.27.03 2.56-.04 3.8-.3 1.04-.2 1.91-.75 2.92-1 1.14-.3 2.41-.24 3.58-.4 1.15-.15 2.28-.35 3.41-.58 2.46-.5 4.89-1.1 7.33-1.63 2.39-.5 4.78-1 7.12-1.69.97-.29 2-.84 3-.82 1.08.02 2.03.1 3.12-.1 1.12-.2 2.21-.5 3.34-.66 1.04-.14 2.1.03 3.13-.15 1.17-.2 2.25-.7 3.38-1.04 1.1-.33 2.12-.23 3.25-.23-2.8 2.17-5.72 4.16-8.57 6.26-2.88 2.11-5.57 4.45-8.34 6.7-2.25 1.82-5.05 3.57-6.43 6.19a10.97 10.97 0 00-.87 7.04c.56 2.91 2.71 3.28 5.33 3.46 3.39.24 6-1.2 8.95-2.65a193.37 193.37 0 0016.84-9.56c2.7-1.69 5.7-2.96 8.57-4.33l4.56-2.17c1.25-.6 2.88-1.76 4.25-1.63-3.78 7.83-7.74 15.58-11.07 23.63-1.4 3.37-2.5 6.86-2.78 10.51-.2 2.57-.06 7.65 3.14 8.5 1.44.38 2.72-.56 3.69-1.51 1.37-1.35 2.63-2.83 3.94-4.24 2.57-2.76 5.25-5.38 8.05-7.9 2.83-2.56 5.66-5.05 8.21-7.9 2.43-2.72 5.46-4.78 7.77-7.6 2.37-2.91 4.5-6 6.9-8.9 1.56-1.9 2.83-4.87 5.53-5.3.4 2.25 2.33 4.25 3.69 6.08 2.98 4.05 6.6 7.37 10.32 10.71 3.38 3.03 7 5.57 11.26 7.21 2.8 1.08 8.66 3.59 10.86.19 1.04-1.62.5-4.77.1-6.54-.54-2.46-1.73-4.76-2.8-7.02-2.2-4.6-4.62-9-7.08-13.46-1.24-2.23-2.45-4.48-3.78-6.66-1.16-1.9-2.77-3.71-3.34-5.9a5.9 5.9 0 01-.09-3.02c.31-.96.71-.78 1.57-.9 1.9-.28 1.33-3.77 1.08-5.13-.22-1.22-.68-2.39-1.11-3.54-.37-.97-1.2-2.3-1.15-3.36.05-1 1.02-2.01 1.4-2.91.47-1.04.76-2.13 1.09-3.22 1.47-5 3.41-9.82 4.64-14.89 1.23-5.04 2.53-9.97 4.32-14.85 1.87-5.06 3.9-10.07 5.6-15.19 1.63-4.97 3.25-9.92 5.06-14.83a473.5 473.5 0 0111.76-29.23c4.21-9.47 9-18.68 12.65-28.4 1.75-4.66 3.48-9.3 5.13-14 1.71-4.89 3.54-9.67 5.52-14.44 2.02-4.88 3.7-9.9 5.42-14.9 1.7-4.9 3.15-9.97 5.25-14.71.54.58 1.04 1 1.43 1.7.38.7.71 1.34 1.25 1.94.96 1.07 2.18 1.82 3.34 2.64.73.52 1.34 1.14 2.17 1.25h.07c-.15.02-.3.02-.47.06l3.19 2.21a9.7 9.7 0 00-.28-.6c.34.6.7 1.17 1.45 1.3l-.18.02c.5.37 2.29 2.15 2.13.23.07.31-.05.55.08.86.14.33.46.63.7.9.51.54 1.1 1.01 1.7 1.44 1.42 1.02 2.95 1.88 4.32 2.95.4.32 1.75 1.88 2.22 1.88l2.6 2.27-1-3.49.73 2.54c.28.98.7 1.33 1.44 1.99 1.3 1.16 2.57 2.33 3.92 3.43 2.44 2 5.25 3.56 7.88 5.32 1.42.96 2.82 1.95 4.18 3 1.11.87 2.47 1.17 3.58 2.01 1.4 1.06 2.63 2.43 3.84 3.7 1.08 1.12 2.36 2.25 3.1 3.64.85 1.58.87 3.63 1.13 5.37l.79 5.28c.53 3.6 1.03 7.22 1.46 10.85.43 3.56.95 7.12 1.26 10.7.31 3.6.23 7.23.64 10.84.82 7.25 1.74 14.64 3.3 21.77 1.56 7.19 2.56 14.47 3.92 21.7.7 3.72 1.43 7.43 2.16 11.15.36 1.82.75 3.64 1.1 5.47.3 1.5.15 3.02.42 4.54.14.82.34 1.63.34 2.47 0 .8-.51 1.51-.54 2.23-.04 1.02.9 2.63 1.46 3.44.85 1.23 2.04 2.34 3.03 3.47 1 1.13 1.4 1.53 1.04 3.07-1.52 6.56 2.38 12.06 6.54 16.7 4.59 5.11 9.17 10.04 14.43 14.46 2.75 2.32 5.34 4.82 7.98 7.27a49.1 49.1 0 008.2 5.97c3 1.81 6.17 3.13 9.27 4.73a73.94 73.94 0 009.29 4.2c3.09 1.1 6.22 2.02 9.2 3.4a9.75 9.75 0 007.68.04c1.59-.68 2.95-1.92 4.38-2.89a63.4 63.4 0 014.08-2.58c2.3-1.33 4.56-2.87 5.54-5.47 1.16-3.06.16-6.75-.5-9.84a28.37 28.37 0 00-3.78-8.82c-1.76-2.84-3.94-5.3-5.96-7.96-2.08-2.74-3.94-5.62-6.12-8.3a94.19 94.19 0 00-6.85-7.57c-2.43-2.4-4.55-5.06-6.79-7.63-.54-.62-1.36-1.28-1.46-2.16-.09-.76.44-1.3.69-1.98.49-1.3.34-2.73.37-4.1 0-.66 0-1.34.33-1.94.3-.56.88-.78 1.1-1.39.19-.53.12-1.21.23-1.77.13-.71.46-1.23.7-1.9.56-1.69-.14-3.66-.46-5.33l-.88-4.74c-.63-3.42-1.1-6.85-2.17-10.16-2.19-6.74-4.32-13.44-4.46-20.58-.08-3.59-1.08-7.02-1.9-10.48-.88-3.67-1.77-7.34-2.68-11-1.73-7.02-3.81-13.94-5.6-20.95-1.76-6.98-3.38-14-5.48-20.9-2.13-6.96-5.1-13.5-8.26-20.04a40.29 40.29 0 00-5.43-8.55c-2.33-2.78-4.7-5.52-7.1-8.25-4.81-5.51-9.63-11.02-14.52-16.47a67.52 67.52 0 00-7.73-7.6c-2.53-2.05-6-3.77-6.8-7.12-.22-.94-.37-1.9-.62-2.84-.14-.54-.59-1.36-.52-1.95.14-1.17 2.31-1.62 3.19-2.02 3.03-1.37 6.1-2.73 9.08-4.23 1.64-.82 3.1-1.83 4.63-2.84 1.3-.84 2.76-1.1 4.21-1.55 3.23-1 6.2-2.43 9.18-4 3.07-1.63 6.17-3.25 9.15-5.05 3.02-1.82 5.37-4.06 7.93-6.43 1.15-1.06 1.96-.53 2.78.64.99 1.42 2.03 2.8 3.05 4.2.47.66.88 1.43 1.56 1.82l.07.03-.38-.13c.25 1.75 1.57 2.96 2.74 4.17l-.32-.9c.3.83.7 1.4 1.24 2.11a35.69 35.69 0 003.54 3.92l1.98 1.93.8.76c.43.42.67.55 1.11.75.91.4 1.12 1.12 1.9 1.69 1.18.85 2.64 1.41 3.86 2.25 1 .68 1.86 2.07 3 2.32.42.1.73.03 1.07.36.44.43-.02.42.67.58.35.08.71-.13 1.07-.01.37.12.7.44 1.01.67l2.15 1.57c1.3.95 2.58 1.9 3.85 2.87 2.53 1.94 4.86 4.12 7.4 6.04 1.31 1 2.73 1.72 4.13 2.57 1.17.7 2.15 1.65 3.25 2.45 1.3.96 2.83 1.43 4.2 2.3 1.32.85 2.6 1.73 4 2.5a85.32 85.32 0 009.3 4.53c3.24 1.31 6.56 2.37 10.08 2.53 3.57.17 6.95-.76 10.25-2.07a91.52 91.52 0 009.55-4.41c3-1.62 5.8-3.55 8.75-5.26 2.96-1.71 5.77-3.5 8.59-5.44 2.67-1.84 5.22-3.9 8.11-5.41 2.92-1.52 5.5-3.5 8.25-5.3a835.6 835.6 0 008.44-5.57c5.84-3.92 11.69-7.9 17.24-12.23a69.14 69.14 0 007.62-6.66c2.5-2.62 5.47-4.84 8.2-7.2l7.88-7.64h.01l-7.89 7.65c1.25-.24 2.07-1.05 3.07-1.82 1.05-.82 2.1-1.66 3.14-2.5 1.51-1.23 3.26-2.5 3.08-4.67a35.9 35.9 0 012.04-1.79c1.15-.91 2.52-1.47 3.75-2.29 2.5-1.66 4.66-3.79 7.01-5.65 1.04-.82 1.97-1.44 2.13-2.84.18-1.53-.03-3.18-.04-4.72 0-1.19-.34-2.85.1-3.97.47-1.13 1.98-1.61 2.96-2.15 2.77-1.52 5.5-3.11 8.28-4.63 2.73-1.5 5.1-2.49 8.22-2.75 1.36-.12 2.67-.32 4.01-.53 1.39-.22 2.68.19 4.04.44 3.09.56 6.21.9 9.3 1.47 3.1.58 6.18 1.35 9.24 2.1 3.08.76 6.14 1.57 9.26 2.12 1.6.28 3.24.46 4.79.96 1.17.37 2.3.9 3.5 1.17 2.9.64 5.87.72 8.71 1.69a49.1 49.1 0 008.7 1.9c1.55.24 3.1.49 4.63.82.93.2 1.75.32 2.7.09a5.98 5.98 0 004.14-3.93c1.71-5.2-1.6-10.78-4.99-14.47-3.62-3.96-8.2-6.72-12.55-9.78 1.73-.2 3.45.06 5.19.1 1.48.02 2.94-.05 4.42.03 3.3.19 6.58-.77 9.88-.84 4.46-.1 9.97-1 11.14-6.1 1.08-4.73-3.94-9-7.53-11.14-2.3-1.38-4.63-2.65-6.88-4.1-2.41-1.57-5.4-2.49-8.05-3.54a74.4 74.4 0 00-8.26-2.86c-2.7-.71-5.45-1.1-8.04-2.16 2.36-1.03 4.91-1.26 7.44-1.73 2.52-.47 5-1.1 7.47-1.78z" fill="#000B45"/><path d="M717.8 339.63c-.27 1.12-.92 1.67-2.02 1.93-1.82.44-3.82.5-5.68.73-3.4.42-6.92.59-10.25 1.4a36.94 36.94 0 00-9.06 3.42c.92-4.4 1.97-8.68 1.58-13.22-.28-3.33-.36-8.35-3.73-10.28-.78-.44-2.01-.28-2.88-.32l-3.38-.18c-2.23-.12-4.45-.36-6.67-.57-4.38-.43-8.73-.96-13.09-1.6-.72-.1-2.01-.03-2.5-.65-.35-.46-.18-1.19-.15-1.7.09-1.79.02-3.57-.2-5.34a62.83 62.83 0 00-2.76-11.4c-.6-1.88-1.25-3.75-1.86-5.62-.3-.9-.98-2.14 0-2.8.6-.4 1.68-.4 2.39-.57.84-.21 1.67-.49 2.5-.76l5.85-1.94c7.41-2.47 14.9-4.78 22.28-7.3l3.1-1.07c.45-.15 1.23-.54 1.7-.33.57.25.46.87.87 1.24.35.32 1.15.34 1.6.6 1.16.67 1.89 1.84 2.8 2.78 1.16 1.2 2.47 2.27 3.62 3.5 4.65 4.96 8.1 10.94 11.01 17.06.78 1.64 1.3 3.35 1.79 5.1.46 1.66 1.05 3.28 1.32 4.99.61 3.98.63 8.09 1.13 12.1.4 3.36 1.48 7.43.69 10.8zm-29.56-9a36.93 36.93 0 01-.73 7.92c-.6 2.68-1.68 5.25-2.65 7.81-.9 2.42-1.64 4.91-2.7 7.27-1.04 2.33-2.38 4.45-3.22 6.87-1.71 4.95-4.65 9.3-6.73 14.08-2.12 4.9-4.5 9.56-7.13 14.2-1.26 2.2-2.42 4.65-4.01 6.63-.79.99-1.69 1.97-2.6 2.84-.8.77-1.18.19-2.14.36-1.4.25-2.12 2.07-3.03 3a76.53 76.53 0 01-5.35 5.12c-1.93 1.63-4.06 3-6.04 4.57a34.73 34.73 0 01-5.93 3.96c-4.26 2.16-9.15 4.82-14.07 4.59-2.26-.1-3.47-1.58-4.42-3.54-1-2.08-.66-4.58-.5-6.8.2-2.69.85-5.05 2.28-7.32 1.4-2.24.02-3.63-1.38-5.5-3.13-4.16-7.3-7.4-11.1-10.92a799.86 799.86 0 01-5.86-5.5l-3.22-3.04c-.79-.75-1.55-1.25-1.83-2.3 2.14-1.15 4.37-2.13 6.34-3.58 4.03-2.94 7.72-6.53 11.52-9.77 1.82-1.56 3.26-3.49 4.73-5.37 1.4-1.81 3.03-3.53 4.25-5.49 2.62-4.21 5.61-8.39 7.7-12.9a34.22 34.22 0 002.1-6.96c.33-1.45.71-2.89 1.08-4.32.23-.93.3-2.53.9-3.3 1.09-1.4 4.52.87 5.78 1.27 2.37.76 4.84 1.12 7.3 1.5 5.2.8 10.42 1.48 15.59 2.48 2.7.52 5.42 1.1 8.16 1.38 2.67.26 5.34.12 8 .1.58 0 1.28.1 1.66-.43.22-.3.07-.67.42-.95.46-.36 1.06-.17 1.59-.11 1.07.11 2.14.18 3.2.31.46.06 1.38-.02 1.77.22.42.26.27 1.03.27 1.62zm-74.81 71.29a22.16 22.16 0 00-2 8.8c-.02 1.48.17 2.97.48 4.43.26 1.27 1 2.73.76 4.01-3.15-1.46-6.25-3.03-9.47-4.34-2.78-1.14-4.87-3.12-7.16-5-2.45-2.02-4.68-4.27-7.04-6.4-2.53-2.28-5.17-4.44-7.75-6.68-4.59-3.97-8.44-8.44-12.2-13.19-3.32-4.17-8.06-9.5-7.84-15.14.1-2.63.3-5.6 1.58-7.95 1.07-1.95 3-4.14 4.8-5.44 1.74-1.25 3.45 1.9 4.43 3 2.1 2.38 4.24 4.73 6.38 7.08 4.05 4.48 7.9 9.18 12.3 13.34 4.41 4.2 8.94 8.3 13.7 12.1 2.38 1.9 5.01 3.68 7.17 5.83.8.8 2.34 1.67 2.87 2.65.57 1.07-.57 2-1.01 2.9zm108.55-61.83c-.67-.09-.64 0-.7-.65-.08-1.02.26-2.22.36-3.24.5-4.84.26-9.92-.16-14.76-.83-9.52-2.8-18.88-7.77-27.13a48.2 48.2 0 00-8.15-10.46c-1.5-1.4-2.96-2.92-4.62-4.14-.84-.62-2.05-.93-2.8-1.56-.42-.34-.6-1.03-.94-1.46-1.38-1.73-2.94-2.18-5.15-2-2.28.2-4.68.92-6.88 1.53-4.69 1.3-9.19 3.51-13.73 5.26a427.12 427.12 0 00-13.58 5.52c-1.96.83-4.32 1.49-6.05 2.74-1.05.75-1.36 1.69-1.25 2.95.4 4.44 2.05 8.85 3.3 13.1a66.3 66.3 0 012.79 13.96c-4.65-.34-9.27-.7-13.9-1.28-2.31-.3-4.64-.53-6.95-.85-1.2-.17-1.75-.61-2.71-1.23-.85-.55-1.28-.08-1.64.74-1.87 4.3-2.61 9-4.64 13.26-.9 1.92-2.04 3.71-2.99 5.61a53.56 53.56 0 01-3.56 6c-.6.9-1.37 1.6-2.03 2.44-.62.77-1.06 1.66-1.62 2.46a35.71 35.71 0 01-4.07 4.62 141.81 141.81 0 00-4.25 4.45c-1.37 1.5-3 2.7-4.44 4.11-1.36 1.33-2.54 2.77-3.93 4.07-1.35 1.26-1.97 3-3.42 4.12-.78.6-1.64 1.1-2.42 1.7-.64.51-1.3 1.4-2.21 1.23-1.01-.2-1.82-1.55-2.46-2.25-.8-.9-1.63-1.8-2.45-2.69-3.24-3.5-6.56-6.94-9.82-10.42-1.6-1.7-3.35-3.24-4.9-4.98-1.14-1.27-3-2.17-4.58-1.3-1.6.87-3.52 1.64-4.82 2.96-1.4 1.42-2.52 3.27-3.67 4.9-1.19 1.7-1.66 3.72-1.97 5.74-.34 2.15-.68 4.29-.52 6.48.32 4.14 1.08 8.76 3.48 12.25 1.14 1.66 2.7 2.91 4.1 4.34 1.52 1.55 2.6 3.42 3.85 5.18 2.5 3.53 5.58 6.69 8.72 9.66 1.5 1.41 3.19 2.6 4.7 4.03a43.45 43.45 0 005.04 4.15c1.85 1.29 3.38 2.97 5.06 4.47a56.66 56.66 0 005.4 4.3 39.49 39.49 0 0011.58 5.48c4.66 1.4 9.18 3.25 13.82 4.72 2.22.7 4.42-.27 6.54-.98a36.4 36.4 0 006.26-2.71c4.04-2.27 7.91-4.91 11.88-7.3a43.5 43.5 0 0010.72-9c3-3.47 6.18-6.92 8.92-10.6 5.55-7.5 8.91-16.37 13.03-24.67 2.2-4.4 4.41-8.75 6.24-13.33.9-2.26 1.7-4.55 2.6-6.8.4-.95.72-1.32 1.75-1.48 1.2-.19 2.43-.27 3.63-.42 4.77-.56 9.42-1.4 14.15-2.22 4.38-.76 8.8-1.54 12.71-3.77.83-.47 1.82-1.02 2.26-1.9.2-.4.71-2.42.43-2.75-.17-.19-1.29-.16-1.57-.2zM526.79 39.05c1.52-.8 3.07-1.54 4.62-2.3 3.28-1.59 6.5-3.29 9.82-4.8 1.5-.7 3.07-1.13 4.6-1.7 1.65-.62 3.21-1.42 4.78-2.18 3.3-1.6 6.68-2.98 10.1-4.28l3.16-1.17c.81-.3 1.8-.88 2.64-.97 1.33-.16 2.33 1.2 3.24 2.02 4.9 4.41 8.37 10.96 10.48 17.15 1.15 3.37 1.67 6.86 2.28 10.36.63 3.59 1.3 7.1 1.32 10.75.03 3.71.4 7.37.24 11.09-.06 1.38.2 3.88-.57 5.09-.77 1.22-2.71 1.56-3.96 2.02-6.83 2.47-13.64 5.13-20.57 7.31-7.2 2.27-14.39 4.57-21.57 6.9.29-2.05.63-4.09.86-6.14.22-1.93.06-3.93.04-5.87-.04-4.26-.18-8.5-1.03-12.7-1.56-7.6-4.07-15.1-8.29-21.67a42.83 42.83 0 00-3.34-4.34c-.42-.5-1.82-1.69-1.77-2.46.06-1 2.19-1.73 2.92-2.11zm81.88-.83c1.58.07 2.6.44 2.7 2.12.15 2.15.12 4.33.2 6.48.14 4.12.3 8.24.18 12.37-.19 7.22-.96 14.43-3.17 21.33a110.31 110.31 0 01-3.73 9.84c-1.34 3.12-3.23 5.93-4.91 8.87a19.86 19.86 0 01-2.9 3.84c-.53.57-.78.88-1.54.98-.77.1-1.75-.1-2.52-.16-3.66-.26-7.31-.62-10.97-.8-3.63-.17-7.27-.02-10.9-.19-1.7-.08-3.3-.63-4.98-.9-1.68-.27-3.38-.4-5.08-.58-.87-.1-.85.1-.98-.7-.08-.41.04-.96.07-1.4l.14-2.5c.04-.75-.11-2.06.2-2.76.26-.63.84-.74 1.44-.9a90.13 90.13 0 009.88-3.38c3.31-1.34 6.66-2.6 9.94-4.03 1.4-.61 3-1.17 4.07-2.33a8.85 8.85 0 001.77-3.4c2.13-6.69 1.46-14.4.84-21.29-.65-7.09-1.66-14.36-4.25-21.02 8.16 0 16.35.14 24.5.51zm-91.13 6.13c2.27.85 3.7 2.83 5.02 4.74a59.63 59.63 0 014.48 7.38 63.47 63.47 0 015.51 17.47c.98 5.73 1.46 12.1.34 17.85-.3 1.54-1.08 2.77-1.52 4.23-.3.97-.1 2.4.17 3.37.38 1.39 1.7.92 2.8.69l4.79-1c6.02-1.26 11.98-3.47 18.1-3.92-.52 1.63-.8 3.1-1.86 4.5-.99 1.31-2.3 2.45-2.87 4.02a7.2 7.2 0 00-.08 4.48c.5 1.4 1.74 1.42 3.04 1.57 3.64.44 7.22 1.05 10.9 1.24.79.05 1.58.14 2.36-.01.62-.12 1.06-.31 1.7-.2.84.16 1.58.56 2.46.66.83.08 1.67.05 2.5.02 3.07-.11 6.08.2 9.16-.1.9-.08 2.58-.59 3.42-.08.89.55.2 1.64.63 2.4.59.98 2.58.47 3.55.42a9.1 9.1 0 003.83-.95c2.5-1.29 4.76-3 6.6-5.13 1.92-2.24 3.31-4.85 4.69-7.44 1.43-2.7 2.87-5.33 3.95-8.2 1.11-2.93 2.2-5.95 2.82-9.03.63-3.07 1.03-6.19 1.62-9.26.62-3.22.73-6.49.89-9.75.17-3.37.24-6.7.03-10.07-.2-3.32-.57-6.57-.96-9.87-.1-.85-.05-1.72-.19-2.55-.09-.56-.38-1.1-.41-1.67-.06-1.13.97-1.86.95-3.04-.07-2.75-3-3.77-5.17-4.43a25.35 25.35 0 00-8.93-1.16c-6.35.46-12.85.52-18.88 2.84-3.13-5.36-6.04-11.17-11.15-14.92-.58-.43-1.2-.72-1.58-1.34-.32-.54-.46-1.08-.88-1.56-1.05-1.2-2.35-1.34-3.81-1.03a55.6 55.6 0 00-9.28 2.63c-1.35.54-2.78.79-4.13 1.31-1.3.5-2.54 1.14-3.79 1.76-2.73 1.34-5.56 2.49-8.28 3.85-5.49 2.73-10.9 5.59-15.95 9.07-2.44 1.69-5.24 3.43-7.3 5.57a4.12 4.12 0 00-1.17 3.43c.15 1.35.85.82 1.88 1.2zM158.3 54.81c.27-3.49.16-6.98.41-10.47.24-3.3.91-6.68 1.56-9.93.66-3.31 1.86-6.25 3.22-9.32.74-1.7 1.46-3.4 2.18-5.1.45-1.05.77-2.13 2-2.41 1.58-.36 3.5-.07 5.12-.13 1.65-.06 3.3-.16 4.94-.3 3.57-.32 7.12-.84 10.69-1.21 3.41-.36 6.79-.56 10.16-1.27 1.73-.36 3.45-.78 5.17-1.2 1.3-.32 3.08-1.13 4.38-.82-1.6 3.65-2.1 7.55-2.15 11.5-.01 1.56-.2 2.2-1.82 2.1a110 110 0 01-6.07-.55c-3.8-.44-7.57-1.14-11.33-1.79-1.79-.3-3.5-.75-5.26-1.14-1.24-.27-1.76.22-2.18 1.36-.3.82-.4 1.2-1.17 1.66-.63.37-1.25.73-1.83 1.2-1.03.8-1.92 1.78-2.68 2.85-1.69 2.38-2.77 5.17-3.76 7.9a70.22 70.22 0 00-3.97 21.57c-.12 3.7-.73 7.32-.77 11.03-.02 1.64.4 3.74-.97 4.93-1.34 1.17-3.05 2-4.54 2.95-1.3-3.74-1.65-7.7-1.69-11.65-.04-3.92.06-7.85.36-11.76zm55.29-19.8c1.63.43 3.27.81 4.91 1.2-2.8 6.7-2.7 14.12-2.9 21.27-.1 3.2-.02 6.4.3 9.59.32 3.25 1.05 6.36 1.71 9.55.14.7.49 1.84.03 2.48-.51.71-2.18 1.1-2.9 1.42-2.87 1.3-5.7 2.7-8.62 3.86-2.97 1.18-6.05 1.88-8.95 3.25a97.04 97.04 0 01-8.68 3.62c-2.9 1.04-5.92 1.8-8.72 3.11-2.66 1.24-4.86 2.95-7.12 4.78-1.37-4.26-1.9-8.6-2.16-13.08-.24-4.28-.59-8.73-.15-13 .2-1.96.2-3.77.16-5.72-.03-1.75.37-3.46.5-5.2.31-3.83.3-7.65.82-11.46.98-7.22 2.93-14.85 6.86-21.04.25-.4.5-1.03.84-1.32.58-.49.38-.4 1.14 0 .72.36 1.42.75 2.16 1.07 1.55.68 3.2.97 4.82 1.43 1.8.51 3.42 1.3 5.28 1.58 1.8.28 3.62.31 5.42.6 1 .15 1.91.48 2.88.73.78.2 1.56.15 2.39.23 1.6.17 3.16.62 4.77.77 1.8.16 3.41-.2 5.2.27zm-59.22 31.13A49.02 49.02 0 00157.83 79c.55 1.32 1.17 3.17 2.76 3.53 1.45.34 3.22-.73 4.6-1.11 1.08 6.4 1.55 13.07 4.4 19 .37.76.84 2.15 1.59 2.65.76.5 1.68 0 2.44-.28 3.17-1.2 6.45-1.97 9.74-2.8 1.6-.42 3.24-.78 4.8-1.32 1.3-.45 2.53-1 3.9-1.24a52.77 52.77 0 008.2-2.4c5.71-2.02 11.45-3.85 16.72-6.88 2.52-1.44 5.15-2.86 7.48-4.6 1.9-1.44 4.03-3.58 3.1-6.18-.28-.79-1.06-2.09-1.95-2.33-.83-.22-1.58.53-2.35.7-1.15.27-.9-.66-1-1.57l-.26-2.15c-.18-1.5-.36-3.01-.5-4.52-.55-6.26-.3-12.5-.3-18.77 0-3.14.73-5.9 1.46-8.91.39-1.6.75-3.22 1.1-4.83.18-.9.4-1.88.14-2.79-.58-2.03-3.48-2.6-5.2-3.18-1.47-.5-2.97-.93-4.5-1.23-.83-.17-3.07-.04-3.61-.74s.06-2.96.11-3.78c.1-1.53.2-3.05.4-4.57.33-2.44.3-4.71-1.66-6.5 1.22-.97 2.09-3.03.32-3.92a10.5 10.5 0 00-6.91-.64c-2.35.6-4.93.6-7.34.86-2.56.27-5.12.6-7.67.93-4.4.55-8.88.67-13.23 1.57-2.17.44-4.35.78-6.55 1.13-2.27.36-3.63.66-5 2.58-2.57 3.63-4.95 7.36-6.4 11.6-1.37 4.02-2 8.25-2.39 12.47-.4 4.54-.5 9.07-.45 13.64.05 4.58-.02 9.17.55 13.73zM61.97 245.8c.26-.45 1.05-.55 1.47-.72.66-.26 1.28-.6 1.89-.95a86.47 86.47 0 008.88-5.7c.69-.52 2.4-2.43 3.4-2.13.49.15.76.97.97 1.37.38.7.76 1.39 1.18 2.06a34.56 34.56 0 006.06 7.16c4.36 3.97 9.33 6.53 15.3 6.84-3.86 5.25-7.55 10.73-11.93 15.56-2.21 2.44-4.64 4.64-6.94 7-.39.4-.6.64-1.12.87-.5.22-.97.3-1.38.7-.72.72-.77 1.78-.61 2.73-4.08.16-8.5-1.67-12.2-3.17a53.96 53.96 0 01-6.36-3.01c-1.38-.79-2.94-1.67-3.95-2.93 3.74-1.99 7.52-3.88 11.1-6.15 2.45-1.54 6.78-3.35 6.43-6.92-.06-.56-.27-1.24-.77-1.56-.72-.48-.89.08-1.55.23-1.08.23-2.35-1.19-3.17-1.8-2.21-1.65-4.38-3.48-5.7-5.96-.4-.74-1.5-2.66-1-3.52zM39.2 277.42c.6-1.98-2.23-3.5-3.48-4.45-1.88-1.43-3.18-3.01-4.45-5-4.92-7.79-6.67-17.27-6.26-26.37.11-2.53.4-5.05.45-7.57.04-1.32-.05-2.54.24-3.83.27-1.23.6-2.44.9-3.66.6-2.43.9-4.92 1.62-7.32a37.68 37.68 0 012.63-6.43c.71-1.38 1.37-3.3 3.22-3.04 2.31.33 4.57 1.52 6.82 2.14 2.5.69 5.02 1.26 7.54 1.85 2.43.57 4.81 1.39 7.26 1.88 1.28.26 2.55.36 3.85.34.57 0 1.6-.06 1.65.72.06.85-1.24 1.77-1.78 2.3a7.05 7.05 0 00-1.73 2.4 29.94 29.94 0 00-2.25 7.28c-.35 2.44-.3 5.01-.32 7.48-.06 4.97.65 9.74 2.43 14.4 1.62 4.21 4.16 7.12 7.62 9.94l-10.87 5.4c-3.26 1.63-6.56 3.03-9.35 5.43-1.15.98-2.51 2.12-3.33 3.41-1.03 1.6.41 2.7 1.94 2.06 1.69-.7 3.34-1.52 4.99-2.3 1.07-.51 2.86-1.88 4.1-1.85 1.07.03 1.47 1.39 1.95 2.14.76 1.2 1.7 2.28 2.74 3.25a29.73 29.73 0 007.45 5.01 36.22 36.22 0 009.43 2.94c1.78.3 3.58.46 5.37.4 1.35-.06 3.26-.06 4.47-.72 1.05-.57.5-1.72 1.54-2.31 1.1-.63 2.25-1.1 3.3-1.8 2.5-1.65 3.97-3.78 5.43-6.33 3.36-5.85 7.44-11.2 9.95-17.51.59-1.48.93-3.22 1.89-4.51.64-.86 2.06-1.37 2.22-2.5.15-1.1-.3-3.53-1.39-4.04-1.26-.58-3.1-.6-4.47-.91-5.96-1.4-11.52-3.51-16.26-7.46a37.11 37.11 0 01-3.37-3.17c-.78-.84-1.6-1.72-1.44-2.95.14-1.1 1.02-2.69-.77-3-1.2-.2-2.85.43-3.83 1.05-2.94 1.85-5.66 4.08-8.46 6.13-2.56 1.86-5.18 3.64-7.77 5.44.3-4.29.16-8.94 1.18-13.13.5-2.05 1.37-3.98 2.5-5.76 1.14-1.83 2.06-3.74 3.07-5.65.56.32 1.47 1.05 1.99.19.31-.54.1-1.96-.03-2.58-.89-4.58-7.85-5.04-11.44-5.82-5.16-1.12-10.32-2.48-15.54-3.28-2.42-.37-4.8-.44-7.24-.6-1.24-.07-2.7-.35-3.45.91-.2.34-.23.82-.45 1.1-.2.24-.8.48-1.07.7-.8.65-1.5 1.41-2.1 2.25a27.85 27.85 0 00-2.93 5.58 53.77 53.77 0 00-3.74 14.6c-.63 5.13-1.07 10.43-.74 15.6.63 9.52 3.21 19.2 9.2 26.8a14.98 14.98 0 004.86 4.2c.95.51 3.97 2.3 4.5.53zM107.46 389.37c-1.85 2.39-3.7 4.75-5.37 7.29-1.67 2.55-3.26 5.15-4.9 7.72-1.57 2.49-3.33 4.9-4.6 7.56-.73 1.54-.8 3.56-2.8 3.49-2.66-.1-5.17-.86-7.5-2.1a31.1 31.1 0 01-11.52-10.4c-3.03-4.6-5.4-9.8-7.1-15.03-.94-2.9-1.7-5.84-2.38-8.8-.35-1.5-.72-2.98-.72-4.53 0-.68.04-1.37.07-2.05.04-.64.4-1.76-.35-1.8l.66-5.57c.17-1.33.16-2.83 1.33-3.72 1.12-.85 2.88-.87 4.2-1.17a65.6 65.6 0 004.76-1.27c3.21-.99 6.29-2.3 9.4-3.58a41.2 41.2 0 004.56-2.12c1.2-.69 2.07-1.68 2.89-.12 5.58 10.63 9.65 22.55 18.78 30.8.74.66 1.95 1.46 2.06 2.55.1 1.07-.88 2.1-1.47 2.85zm7.35-7.51c-1.29-.89-2.89-1.03-4.2-1.85-1.5-.93-2.48-3.04-3.5-4.44a179.6 179.6 0 01-7.1-10.24c-2-3.19-3.8-6.5-5.73-9.73a52.7 52.7 0 00-3.16-4.81c-.5-.66-1.74-2.97-2.8-2.89-.54.05-.52.58-.91.75-.2.09-.36-.01-.56.02-.7.09-1.48-.27-2.2-.2-1.8.18-3.75.93-5.48 1.46-3.61 1.09-7.06 2.62-10.61 3.88-3.53 1.25-7.46 2.08-10.68 4.03-1.27.76-2.7 2-1.46 3.5.47.56 1.12.55 1.62 1 .41.36.23.57.13 1.2L58 364.6c-.57 3.73-1.04 7.46-.52 11.23.52 3.8 1.32 7.6 2.39 11.3 3.36 11.64 9.39 25.48 21.23 30.64 2.76 1.2 5.52 1.5 8.44 2.04.91.17 1.7.58 2.5 1 .4.2.88.53 1.35.48 1.07-.14 1.95-1.8 2.45-2.59 1.9-2.97 4.04-5.76 6-8.69a46.77 46.77 0 002.8-4.69c.49-.94.83-2.5 2.16-2.46l1.07 1.43c.14.2.36.4.46.62.27.54.25.14.14.78-.14.81-.9 1.73-1.37 2.37a388.1 388.1 0 01-8.62 11.1c-2.87 3.6-5.8 7.17-9.16 10.32-.68.64-1.42 1.42-2.42 1.46-.92.04-1.92-.44-2.84-.6-1.98-.35-4.01-.43-5.95-1.02-1-.32-1.84-.9-2.88-.97a4.44 4.44 0 01-2.24-.67c-1.74-1.05-3.67-1.62-5.42-2.61a37.54 37.54 0 01-10.02-8.28c-1.37-1.66-2.5-3.5-3.85-5.19a63.58 63.58 0 01-3.75-5.01 51.5 51.5 0 01-5.43-11.13c-.72-2.03-1.07-3.36.7-4.84a35.4 35.4 0 004.62-4.55c.67-.82 3.76-3.82 1.45-4.32-1.25-.28-3.25 1.83-4.19 2.6a26.76 26.76 0 01-4.8 3.34c-2 1.01-2.04 2.3-2.01 4.39.06 4.32 1.67 8.53 3.34 12.48a58 58 0 006.46 11.47c4.94 6.82 10.47 13.73 18.16 17.54 3.8 1.89 7.9 2.88 12.1 3.36 2.49.27 4.98.37 7.48.3 1.05-.02 2.43.13 3.44-.2.81-.25.95-.86 1.24-1.6.7-1.76 2.54-2.72 3.78-4.13 1.33-1.5 2.72-2.92 4.08-4.4 2.95-3.18 4.91-6.93 7.28-10.52 1.31-2 2.74-3.94 3.88-6.03.93-1.7 2.08-3.93 2.4-5.84.26-1.53-.97-3.75-2.66-3.83-.88-.05-1.59.64-2.45.73-.26.03-1.15-.15-1.46-.02 1.41-3.45 3.52-6.7 5.11-10.05.9-1.9 1.76-3.8 2.55-5.75.6-1.47 1.32-2.69-.21-3.73zM137.52 108.89c2.79 6.44 7.27 11.57 11.85 16.8a52.66 52.66 0 007.84 7.5c2.73 2.08 5.5 4.1 8.26 6.13-2.77 3.56-5.88 6.82-8.97 10.11-2.85 3.04-5.7 6.15-7.58 9.9-.2-1.8-1.36-2.9-2.93-3.64a26.92 26.92 0 01-5.47-3.25 84.12 84.12 0 01-10.07-9.7c-6.27-6.96-10.26-15.71-14.61-23.9l21.68-9.95zm-23.17 16.25c1.06 2.97 2.6 5.84 4 8.66 1.38 2.79 2.82 5.56 4.43 8.22 3.07 5.05 6.82 9.76 11.6 13.31a53.44 53.44 0 007.47 4.79 7.92 7.92 0 003.98 1.02c.86-.05 2.05-.81 2.72-.13.68.7.45 2.08 1.88 1.4 1.18-.55 2.21-1.72 3.08-2.65 2.2-2.35 4.4-4.72 6.52-7.15 2.04-2.36 3.73-5.04 5.46-7.63l2.84-4.3c.68-1.03 1.64-2.06 1.59-3.36-.1-2.54-3.21-4.26-4.98-5.67a48.3 48.3 0 01-6.03-5.59c-1.97-2.2-4.44-4.05-6.57-6.12a95.99 95.99 0 01-6.46-7.15 62.92 62.92 0 01-4.66-6.1c-1.1-1.67-2.32-2.95-4.5-2.64-1.7.4-3.4.67-5.04 1.3-1.65.63-3.24 1.42-4.84 2.16-2.9 1.34-5.58 3.03-8.4 4.51-.63.34-1.27.69-1.85 1.12-.32.24-.64.7-.98.87-.26.13-.43.1-.72.18-1.14.32-1.57.96-2.14 1.96-.92 1.61-.9 2.48-.06 4.13.77 1.52 1.1 3.26 1.66 4.86z" fill="#F3B133"/><path d="M228.88 205.16c.71 1.15 1.88.59 2.55-.23 2.03-2.48 3.93-5.16 5.75-7.8 1.85-2.67 3.54-5.38 5.64-7.88 2.1-2.52 4.27-5 6.46-7.44 8.17-9.14 16.55-18.06 25.56-26.37 2.2-2.03 4.47-4.01 6.59-6.13.93-.94 2.06-1.97 2.02-3.4a3.67 3.67 0 00-1.6-2.82c-1.94-1.13-4.55 1.63-6 2.66-1.1.8-2.28 1.21-3.44 1.86a17.6 17.6 0 00-2.9 2.21c-1.95 1.75-4.06 3.23-6.04 4.93-2.01 1.72-3.79 3.7-5.76 5.47-2.11 1.88-4.38 3.5-6.26 5.66-1.86 2.12-3.42 4.44-5.36 6.5-4.12 4.4-7.49 9.35-11 14.24a39.6 39.6 0 00-4.11 7.58c-.57 1.33-1.14 2.66-1.68 4-.5 1.27-.55 2.56-.78 3.9.3.05.07 2.6.36 3.06zM685.12 421.68c1.55-1.86 2.57-4.55 3.7-6.7 1.2-2.29 2.31-4.42 2.82-6.97.25-1.24.4-2.5.68-3.72.26-1.15.64-2.17.53-3.38-.11-1.26-.7-5.06-2.61-4.64-1.12.25-.9 1.44-.9 2.3 0 1-.12 2-.42 2.95-.7 2.26-2.34 4.25-3.39 6.37a25.43 25.43 0 01-3.73 5.65 40.65 40.65 0 01-4.8 4.61c-1.5 1.23-3.31 2.15-4.4 3.81-.66 1-.77 1.3-1.97 1.56-.97.23-1.88.58-2.7 1.16-.93.66-1.58 1.44-2.67 1.87-.94.38-1.93.6-2.89.95-2.2.81-4.12 2.19-6.36 2.95-1.16.4-2.35.74-3.52 1.1-.94.27-2.06.47-2.83 1.1-1.31 1.07-2.04 3.8-.9 5.22 1.23 1.53 4.12.57 5.72.38l.06.3c2.7-.53 5.51-.85 8.13-1.7a21.54 21.54 0 003.9-1.8c1.07-.6 2.17-.8 3.31-1.19a4.73 4.73 0 002.49-1.74c.82-1.14 1.17-.8 2.43-1.07 2.03-.45 3.78-2.75 5.18-4.15 1.7-1.7 3.6-3.38 5.14-5.22z" fill="#000B45"/><path d="M297.13 94.11c.47-.75 2.13-1.43 2.88-1.91a69.57 69.57 0 003.06-2.07c1.82-1.31 3.08-.45 4.7.8 2.96 2.32 4.16 5.43 3.93 9.1.01 1.08.3 2.88-.53 3.76-.79.85-2.43.77-3.48.98-1.36.27-3.43 2-4.85 1.5-1.24-.45-.8-2.66-.9-3.64a9.99 9.99 0 00-1.92-5.07c-.57-.76-1.26-1.4-2.02-1.98-.58-.44-1.34-.72-.87-1.47zm-5.45 5.53c1.17.2 2.38.75 3.47 1.19.73.3 1.68.57 2.27 1.1.97.86.57 2.23.8 3.36.13.66.47 1.23.23 1.92-.29.81-1.13.95-1.56 1.6-.62.96.18 2.31.72 3.13.94 1.42 2.22.7 3.67.48 1.74-.26 3.53-.33 5.2-.9 1.37-.47 2.5-1.55 3.55-.11.39.54.47 1.01 1.23.8.64-.16 1.29-1.02 1.72-1.46 2.72-2.76 3.37-6.53 3.42-10.24.13-4.13-1.37-8-3.5-11.5-.44-.73-.9-1.57-1.56-2.14-.65-.56-1.5-.77-2.08-1.42-.88-.97-.68-2.92-2.07-3.35-1.48-.45-3.6 1.34-4.7 2.1a111.6 111.6 0 00-4.63 3.35c-3.23 2.48-6.85 4.84-9.77 7.67-1 .95-1.4 2.65-.4 3.8.99 1.14 2.7.4 4 .62z" fill="#F3B133"/><path d="M465.38 395.25a60.53 60.53 0 00-2.97-10.68c-.84-2.25-2.73-6.12-5.77-5.9-3.33.25-1.1 4.6-.77 6.34 1.27 6.77 2 13.7 3 20.53.5 3.38.65 6.87 1.45 10.2.39 1.62.94 3.2 1.63 4.73.43.97.95 2.23 2.04 2.67 3.3 1.34 2.48-4.48 2.44-5.91l-.25-10.53.27-.01c-.5-3.8-.42-7.64-1.07-11.44zM72.14 459.09c-1.8.59-3.15 1.05-5.12.86-1.38-.13-2.75-.41-4.12-.59a35.54 35.54 0 01-10.19-2.88 32.45 32.45 0 01-8.17-5.06 43.28 43.28 0 01-3.6-3.63c-.82-.9-1.58-1.58-2.85-1.75.33 1.84.71 3.28 1.59 4.95a27.88 27.88 0 009.08 10.2 26.69 26.69 0 008.31 3.9c1.66.43 3.35.68 5.03 1 1.58.3 3.12.6 4.74.39 1.51-.21 3.1-.26 4.58-.69a12.15 12.15 0 003.26-1.75c1.94-1.32-.17-5.72-2.54-4.95zM131.2 46.76c.9 1.2 2.84 1.21 2.71-.55a19.07 19.07 0 00-1.14-4.75c-.53-1.55-.43-3.25-.46-4.87a55 55 0 01.79-11.47c.7-3.68 1.15-7.4 1.97-11.06.8-3.6 2.26-6.99 3.16-10.55.28-1.1.5-3.24-1.1-3.5-1.34-.2-2.13 1.67-2.65 2.56-1.73 2.95-3.59 5.67-4.61 8.96a48.22 48.22 0 00-1.94 9.19c-.34 3.23-.3 6.49-.49 9.73.33 3.76.15 7.93 1.36 11.54a17.64 17.64 0 002.4 4.77zM636.22 61.56c-.53 1.27-.79 2.62.12 3.82 1.65 2.16 4.28-2.77 4.68-4.15.87-2.98 1.96-5.99 2.44-9.07.5-3.14.26-6.53.34-9.71a66.45 66.45 0 00-1.67-11.24c-.8-3.26-1.65-6.62-4.3-8.82-1.1-.91-1.87-.22-2.02 1.08a7.2 7.2 0 00.85 4.13c1.53 2.94 1.53 6.38 1.88 9.67.68 6.54 1.06 13.06-.65 19.48a37.87 37.87 0 01-1.67 4.8zM75.13 134.64a36.91 36.91 0 005.47 12.25 44.18 44.18 0 0010.47 10.67c1.32.93 4.51 3.53 6.22 2.66 2.34-1.18-.79-4.22-1.74-5.1-1.96-1.84-3.91-3.7-5.9-5.5-1.98-1.82-3.46-4.15-5.03-6.33-1.58-2.19-3.13-4.4-4.56-6.7-.74-1.19-1.39-2.43-2.12-3.62-.64-1.03-1.58-1.73-2.4-2.6-.68.33-.6.27-.78.89-.07.26-.05.8-.05 1.05.02.8.23 1.55.42 2.33zM243.19 157.67c3.71-3.36 7.79-6.2 11.3-9.79.88-.9 1.56-1.43.8-2.66-.52-.82-1.1-1.24-1.96-.67-2.06 1.34-4.03 3-6.01 4.47-4.07 3.01-8.29 5.96-11.97 9.46a32.39 32.39 0 00-4.49 5.2c-1.35 1.99-2.38 4.01-.86 6.24 4.41-4.06 8.75-8.22 13.19-12.25zM695.5 434.35c-.66-.16-1.76.57-2.26.9-1.97 1.3-4 2.5-6 3.76a267.3 267.3 0 00-5.45 3.57c-1.5 1-2.49 2.24-1.96 4.15.24.86.64 1.88 1.65 1.38.74-.36 1.38-.72 2.19-1 2.04-.73 4.1-1.44 6.01-2.49 3.31-1.8 6.41-4.6 6.85-8.55-.24-.55-.31-1.55-1.02-1.72zM478.06 394.58c-.67-.73-1.5-.74-1.85.14-.37.92.1 2.48.24 3.39.21 1.49.45 2.97.7 4.44.15.87.26 3.55 1.39 3.9 1.74.53 1.78-3.7 1.93-4.55l-1.08-3.75c-.33-1.1-.52-2.7-1.33-3.57zM185.45 321.67c-.41-.2-.73-.11-.82-.6-.07-.42.57-.85.67-1.2.35-1.27-.98.07-1.46.47l1.37 3.39 1.56-.62c-.5-.67-.56-1.08-1.32-1.44zM428.48 117.09c.87.28 2.14-.1 3.02-.27.85-.16 1.81-.4 2.62-.71 2-.78 1.83-3.15 1.37-5-.62-2.48-2.01-4.86-3.11-7.15a92.71 92.71 0 01-1.64-3.6c-.4-.92-.91-2.2-2.1-2.22-1.84-.01-.94 4.31-.65 5.34.73 2.6 2.1 4.98 3.23 7.4-1.05.07-2.13.21-3.18.18-1.09-.04-1.39 0-1.65 1.21-.39 1.76.14 4.17 2.1 4.82zM411.94 95.9c1.98-.12 3.95-.33 5.92-.55 1.45-.16 3.97-.2 5-1.34.7-.78.58-2.45-.04-3.27-.73-.96-2.44-.58-3.53-.58-2.94.05-5.78.44-8.41 1.74-.96.47-3.13 1.34-2.9 2.63.28 1.63 2.76 1.45 3.96 1.37zM420.18 118.7c-1.65.41-1.33 3.24-.83 4.43.77 1.78 2.69 2.21 4.45 2.1.85-.09 2.07.22 2.71-.5.63-.7.62-2.1.18-2.89-.6-1.04-2.12-1.63-3.15-2.11-.9-.42-2.33-1.29-3.36-1.03zM420.4 104c.13-1.62-.8-5.26-2.96-5.12-1.03.06-1.9 1.54-2.09 2.44-.2.95.08 1.91.33 2.82.4 1.5 1.02 3.83 3.02 3.5 1.66-.28 1.7-2.27 1.7-3.64zM435.98 105.63c.44.43 1.08.75 1.69.47.9-.41.75-1.5.75-2.27l.3-.1c-.51-1.42-.85-4.4-2.63-4.8-1.75-.4-1.88 1.55-1.71 2.76.17 1.29.62 2.98 1.6 3.94zM381.03 105.47c-.87.09-2.5.49-2.36 1.58.2 1.59 2.7 1.87 3.96 2.02 1.5.19 3.57.03 2.15-1.84-.87-1.15-2.32-1.65-3.75-1.76zM307.82 295.17l-.94 1.82 2.93.37c.05-.77-1.47-1.73-2-2.2z" fill="#000B45"/></g><defs><clipPath id="clip0"><path fill="#fff" d="M0 0h750v562.5H0z"/></clipPath></defs></svg>