<svg width="157" height="36" fill="none" xmlns="http://www.w3.org/2000/svg"><path d="M46.02 17.48h-3.2l-.56-2.93a5.67 5.67 0 00-1.63-.61 9.46 9.46 0 00-2.27-.27c-1.17 0-2.08.25-2.72.75a2.3 2.3 0 00-.96 1.9c0 .73.34 1.32 1 1.8.67.45 1.83.94 3.47 1.46 2.35.65 4.14 1.52 5.35 2.6a5.37 5.37 0 011.83 4.22c0 1.83-.72 3.27-2.17 4.33-1.44 1.05-3.35 1.58-5.71 1.58-1.7 0-3.22-.27-4.59-.8a9.44 9.44 0 01-3.4-2.23v-4.46h3.32l.45 3.03c.43.36 1.01.65 1.74.88.74.23 1.57.34 2.48.34 1.17 0 2.06-.24 2.66-.72a2.3 2.3 0 00.93-1.92c0-.82-.3-1.48-.88-1.97-.58-.5-1.6-.97-3.05-1.41-2.53-.73-4.44-1.6-5.74-2.6a4.94 4.94 0 01-1.95-4.14c0-1.73.73-3.14 2.2-4.23a9.13 9.13 0 015.52-1.7c1.64 0 3.14.25 4.48.75 1.35.5 2.48 1.16 3.4 1.99v4.36zm12.14-6.8c2.45 0 4.37.62 5.78 1.88a6.25 6.25 0 012.12 4.92c0 2.04-.7 3.68-2.12 4.93-1.41 1.24-3.33 1.86-5.77 1.86h-3.6V29l2.28.44V32H48v-2.56l2.27-.44V13.69l-2.27-.44v-2.58h10.15zm-3.6 10.29h3.6c1.2 0 2.1-.32 2.7-.97a3.5 3.5 0 00.92-2.49c0-1.02-.3-1.87-.92-2.53-.6-.68-1.5-1.01-2.7-1.01h-3.6v7zm32.37.53c0 3.12-.89 5.7-2.68 7.75a8.88 8.88 0 01-7.01 3.06 8.82 8.82 0 01-6.99-3.06c-1.77-2.04-2.65-4.63-2.65-7.75v-.33c0-3.1.88-5.68 2.65-7.73a8.76 8.76 0 016.97-3.08c2.9 0 5.23 1.03 7.02 3.08 1.8 2.05 2.7 4.63 2.7 7.73v.33zm-4.26-.35c0-2.21-.46-4-1.38-5.38a4.58 4.58 0 00-4.07-2.07c-1.8 0-3.14.69-4.03 2.05-.87 1.37-1.31 3.17-1.31 5.4v.35c0 2.24.44 4.05 1.33 5.43a4.5 4.5 0 004.03 2.05c1.8 0 3.16-.68 4.07-2.05.9-1.38 1.36-3.19 1.36-5.43v-.35zm24.35-10.48v5.69h-3.28l-.18-2.4h-3.93V29l2.29.44V32h-8.85v-2.56l2.29-.44V13.97h-3.91l-.18 2.39H88v-5.69h19.02zm9.99 0v2.58l-2.29.44v11.13c0 1.4.38 2.46 1.13 3.17.76.69 1.8 1.04 3.12 1.04a4.5 4.5 0 003.15-1.04c.76-.7 1.14-1.75 1.14-3.17V13.7l-2.27-.44v-2.58h8.83v2.58l-2.28.44v11.13c0 2.4-.8 4.24-2.37 5.54-1.58 1.3-3.64 1.95-6.2 1.95-2.55 0-4.6-.65-6.18-1.95-1.56-1.3-2.35-3.15-2.35-5.54V13.7l-2.27-.44v-2.58h8.84zm35.89 0v2.58l-2.29.44V32h-4.26l-8.61-14.36-.1.02V29l2.3.44V32h-8.84v-2.56l2.27-.44V13.69l-2.27-.44v-2.58H137.65l8.61 14.36.09-.02V13.7l-2.29-.44v-2.58h8.84z" fill="#fff"/><path d="M11.32 30.28l-.08-16.46 9.33-4.4v11.71c-5.25.52-7.1 2.84-9.25 9.15zm0 0V13.82L2 9.42v11.71c6.22 1.67 7.74 4.06 9.32 9.15z" stroke="#F2F2F2" stroke-width="3"/></svg>