<svg width="985" height="401" viewBox="0 0 985 401" fill="none" xmlns="http://www.w3.org/2000/svg">
<path fill-rule="evenodd" clip-rule="evenodd" d="M319.375 307.16C319.375 343.804 289.484 373.693 252.841 373.693V400.307C286.652 400.307 316.356 382.128 332.68 355.042V307.16H319.375ZM345.987 307.16C345.987 343.804 375.88 373.693 412.531 373.693V400.307C378.703 400.307 349.008 382.128 332.68 355.042V307.16H345.987ZM665.369 94.1493C665.369 57.5026 695.253 27.6173 731.904 27.6173V0.998612C698.084 0.998612 668.376 19.1826 652.061 46.2653V94.1493H665.369V94.1493ZM638.745 94.1919H652.061V46.3133C635.743 19.2266 606.029 1.04663 572.207 1.04663V27.6573C608.865 27.6573 638.745 57.5506 638.745 94.1919ZM638.745 307.126C638.745 343.764 608.865 373.735 572.207 373.735V400.271C623.519 400.271 665.369 358.419 665.369 307.126H638.745V307.126ZM958.127 94.2013H984.757C984.757 42.8959 942.908 1.05463 891.591 1.05463V27.6573C928.229 27.6573 958.127 57.5506 958.127 94.2013V94.2013ZM26.6145 307.126H0C0 358.419 41.8432 400.271 93.1505 400.271V373.654C56.5005 373.654 26.6145 343.764 26.6145 307.126V307.126ZM412.549 1.05463C363.788 1.05463 319.292 43.1093 319.375 94.168H346.011C346.011 56.3413 376.917 27.6173 412.547 27.604C412.457 14.9373 412.468 10.7266 412.549 1.05463ZM665.369 373.661V400.295H825.06V267.191H984.757V94.2013H958.127V240.573H825.06V94.2013H798.441V373.654L665.369 373.661ZM731.904 0.998612L891.591 1.05463V27.6853L731.904 27.6173V0.998612ZM665.431 248.355L665.369 307.126H638.745V259.393L483.073 103.473L501.731 84.608L665.431 248.355V248.355ZM319.375 152.969L483.073 316.712L501.731 297.845L346.011 141.929V94.168H319.375V152.969ZM0 1.05463H319.375V27.6573H186.303V306.56H159.683V27.6573H26.6145V307.126H0V1.05463ZM93.1505 373.654H252.865V400.295H93.1505V373.654ZM412.535 1.06127L572.225 1.05463V27.6853L412.535 27.604V1.06127ZM412.531 373.693L572.225 373.789V400.277L412.535 400.236L412.531 373.693" fill="#304FF2"/>
</svg>
